<svg xmlns="http://www.w3.org/2000/svg" viewBox="0 0 500 500"><g id="freepik--background-simple--inject-14"><path d="M291,17.76S213.5,3.67,148.36,56.87,60.37,198.33,40,269.36s8.48,135.18,68.37,156.8,89.85-29.55,166.5-44.31,99.15-7.13,156-61.06,51.59-158.55-11.22-226.34S291,17.76,291,17.76Z" style="fill:#6446FF"></path><path d="M291,17.76S213.5,3.67,148.36,56.87,60.37,198.33,40,269.36s8.48,135.18,68.37,156.8,89.85-29.55,166.5-44.31,99.15-7.13,156-61.06,51.59-158.55-11.22-226.34S291,17.76,291,17.76Z" style="fill:#fff;opacity:0.7000000000000001"></path></g><g id="freepik--Floor--inject-14"><path d="M481,460.57H20.06a.5.5,0,0,1-.5-.5.5.5,0,0,1,.5-.5H481a.5.5,0,0,1,.5.5A.5.5,0,0,1,481,460.57Z" style="fill:#263238"></path></g><g id="freepik--Device--inject-14"><rect x="165.16" y="52.13" width="181.73" height="336.66" style="fill:#fff"></rect><path d="M346.89,389.29H165.16a.5.5,0,0,1-.5-.5V52.13a.5.5,0,0,1,.5-.5H346.89a.5.5,0,0,1,.5.5V388.79A.5.5,0,0,1,346.89,389.29Zm-181.23-1H346.39V52.63H165.66Z" style="fill:#263238"></path><rect x="204.08" y="80.94" width="33.81" height="12.15" rx="3.34" style="fill:#6446FF"></rect><path d="M234.55,93.6H207.43a3.86,3.86,0,0,1-3.85-3.85V84.29a3.86,3.86,0,0,1,3.85-3.85h27.12a3.86,3.86,0,0,1,3.85,3.85v5.46A3.86,3.86,0,0,1,234.55,93.6ZM207.43,81.44a2.86,2.86,0,0,0-2.85,2.85v5.46a2.86,2.86,0,0,0,2.85,2.85h27.12a2.86,2.86,0,0,0,2.85-2.85V84.29a2.86,2.86,0,0,0-2.85-2.85Z" style="fill:#263238"></path><path d="M336.54,278.76h-160a.5.5,0,0,1,0-1h160a.5.5,0,0,1,0,1Z" style="fill:#263238"></path><rect x="242.12" y="80.94" width="33.81" height="12.15" rx="3.34" style="fill:#6446FF"></rect><path d="M272.59,93.6H245.47a3.86,3.86,0,0,1-3.85-3.85V84.29a3.86,3.86,0,0,1,3.85-3.85h27.12a3.85,3.85,0,0,1,3.84,3.85v5.46A3.85,3.85,0,0,1,272.59,93.6ZM245.47,81.44a2.86,2.86,0,0,0-2.85,2.85v5.46a2.86,2.86,0,0,0,2.85,2.85h27.12a2.85,2.85,0,0,0,2.84-2.85V84.29a2.85,2.85,0,0,0-2.84-2.85Z" style="fill:#263238"></path><rect x="280.16" y="80.94" width="33.81" height="12.15" rx="3.34" style="fill:#6446FF"></rect><path d="M310.63,93.6H283.51a3.86,3.86,0,0,1-3.85-3.85V84.29a3.86,3.86,0,0,1,3.85-3.85h27.12a3.85,3.85,0,0,1,3.84,3.85v5.46A3.85,3.85,0,0,1,310.63,93.6ZM283.51,81.44a2.86,2.86,0,0,0-2.85,2.85v5.46a2.86,2.86,0,0,0,2.85,2.85h27.12a2.85,2.85,0,0,0,2.84-2.85V84.29a2.85,2.85,0,0,0-2.84-2.85Z" style="fill:#263238"></path><rect x="165.16" y="52.13" width="181.73" height="24.74" style="fill:#6446FF"></rect><path d="M346.89,77.37H165.16a.5.5,0,0,1-.5-.5V52.13a.5.5,0,0,1,.5-.5H346.89a.5.5,0,0,1,.5.5V76.87A.5.5,0,0,1,346.89,77.37Zm-181.23-1H346.39V52.63H165.66Z" style="fill:#263238"></path><path d="M324.09,68.83A3.12,3.12,0,1,0,321,71.94,3.12,3.12,0,0,0,324.09,68.83Z" style="fill:#fff"></path><path d="M321,72.44a3.62,3.62,0,1,1,3.62-3.61A3.62,3.62,0,0,1,321,72.44Zm0-6.23a2.62,2.62,0,1,0,2.62,2.62A2.63,2.63,0,0,0,321,66.21Z" style="fill:#263238"></path><path d="M332.54,68.83a3.12,3.12,0,1,0-3.11,3.11A3.12,3.12,0,0,0,332.54,68.83Z" style="fill:#fff"></path><path d="M329.43,72.44A3.62,3.62,0,1,1,333,68.83,3.62,3.62,0,0,1,329.43,72.44Zm0-6.23A2.62,2.62,0,1,0,332,68.83,2.62,2.62,0,0,0,329.43,66.21Z" style="fill:#263238"></path><path d="M341,68.83a3.12,3.12,0,1,0-3.12,3.11A3.12,3.12,0,0,0,341,68.83Z" style="fill:#fff"></path><path d="M337.88,72.44a3.62,3.62,0,1,1,3.62-3.61A3.61,3.61,0,0,1,337.88,72.44Zm0-6.23a2.62,2.62,0,1,0,2.62,2.62A2.62,2.62,0,0,0,337.88,66.21Z" style="fill:#263238"></path><rect x="165.16" y="362.29" width="181.73" height="26.49" style="fill:#6446FF"></rect><path d="M346.89,389.29H165.16a.5.5,0,0,1-.5-.5v-26.5a.5.5,0,0,1,.5-.5H346.89a.5.5,0,0,1,.5.5v26.5A.5.5,0,0,1,346.89,389.29Zm-181.23-1H346.39v-25.5H165.66Z" style="fill:#263238"></path><polygon points="291.63 52.13 165.16 272.76 165.16 351.7 336.88 52.13 291.63 52.13" style="opacity:0.04"></polygon><polygon points="346.89 190.02 343.88 187.85 234.57 380.95 237.55 388.79 346.89 388.79 346.89 190.02" style="opacity:0.04"></polygon><path d="M352.34,118.37a2.25,2.25,0,0,0,2.25-2.25V93.67a2.24,2.24,0,0,0-2.25-2.24,3,3,0,0,0-.42,0v-42A14.47,14.47,0,0,0,337.45,35H177.94a14.47,14.47,0,0,0-14.47,14.47V388.3a14.47,14.47,0,0,0,14.47,14.48H337.45a14.47,14.47,0,0,0,14.47-14.48V182.18a3,3,0,0,0,.42,0,2.25,2.25,0,0,0,2.25-2.25V157.53a2.25,2.25,0,0,0-2.25-2.25,3,3,0,0,0-.42,0v-5.07a2,2,0,0,0,.42,0,2.24,2.24,0,0,0,2.25-2.24V125.6a2.25,2.25,0,0,0-2.25-2.25,2,2,0,0,0-.42.05v-5.08A2,2,0,0,0,352.34,118.37ZM343.54,381H171.85V60H343.54Z" style="fill:#263238"></path></g><g id="freepik--Pictures--inject-14"><rect x="233.63" y="285.67" width="49.25" height="69.18" style="fill:#fff"></rect><path d="M282.88,355.35H233.63a.5.5,0,0,1-.5-.5V285.67a.51.51,0,0,1,.5-.5h49.25a.5.5,0,0,1,.5.5v69.18A.5.5,0,0,1,282.88,355.35Zm-48.75-1h48.25V286.17H234.13Z" style="fill:#263238"></path><polygon points="282.88 305.42 275.79 297.1 260.54 323.63 250.48 317.23 233.63 354.85 282.88 354.85 282.88 305.42" style="fill:#6446FF"></polygon><path d="M282.88,355.35H233.63a.49.49,0,0,1-.45-.7L250,317a.52.52,0,0,1,.31-.27.48.48,0,0,1,.42.05l9.62,6.13,15-26.08a.48.48,0,0,1,.39-.25.51.51,0,0,1,.42.17l7.09,8.33a.47.47,0,0,1,.12.32v49.43A.5.5,0,0,1,282.88,355.35Zm-48.47-1h48V305.61L275.87,298,261,323.88a.55.55,0,0,1-.32.24.5.5,0,0,1-.39-.07L250.7,318Z" style="fill:#263238"></path><path d="M250.78,298.62a5.19,5.19,0,1,1-5.18-5.18A5.19,5.19,0,0,1,250.78,298.62Z" style="fill:#6446FF"></path><path d="M245.6,304.31a5.69,5.69,0,1,1,5.68-5.69A5.69,5.69,0,0,1,245.6,304.31Zm0-10.37a4.69,4.69,0,1,0,4.68,4.68A4.69,4.69,0,0,0,245.6,293.94Z" style="fill:#263238"></path><rect x="287.62" y="285.67" width="49.25" height="69.18" style="fill:#fff"></rect><path d="M336.87,355.35H287.62a.5.5,0,0,1-.5-.5V285.67a.5.5,0,0,1,.5-.5h49.25a.51.51,0,0,1,.5.5v69.18A.5.5,0,0,1,336.87,355.35Zm-48.75-1h48.25V286.17H288.12Z" style="fill:#263238"></path><polygon points="336.87 305.42 329.77 297.1 314.52 323.63 304.46 317.23 287.62 354.85 336.87 354.85 336.87 305.42" style="fill:#6446FF"></polygon><path d="M336.87,355.35H287.62a.48.48,0,0,1-.42-.23.49.49,0,0,1,0-.47L304,317a.51.51,0,0,1,.32-.27.46.46,0,0,1,.41.05l9.62,6.13,15-26.08a.5.5,0,0,1,.39-.25.54.54,0,0,1,.43.17l7.09,8.33a.53.53,0,0,1,.12.32v49.43A.5.5,0,0,1,336.87,355.35Zm-48.48-1h48V305.61L329.85,298,315,323.88a.52.52,0,0,1-.32.24.47.47,0,0,1-.38-.07L304.68,318Z" style="fill:#263238"></path><path d="M304.77,298.62a5.19,5.19,0,1,1-5.19-5.18A5.2,5.2,0,0,1,304.77,298.62Z" style="fill:#6446FF"></path><path d="M299.58,304.31a5.69,5.69,0,1,1,5.69-5.69A5.69,5.69,0,0,1,299.58,304.31Zm0-10.37a4.69,4.69,0,1,0,4.69,4.68A4.69,4.69,0,0,0,299.58,293.94Z" style="fill:#263238"></path></g><g id="freepik--Ubication--inject-14"><rect x="179.65" y="285.67" width="49.25" height="69.18" style="fill:#fff"></rect><path d="M228.9,355.35H179.65a.5.5,0,0,1-.5-.5V285.67a.51.51,0,0,1,.5-.5H228.9a.5.5,0,0,1,.5.5v69.18A.5.5,0,0,1,228.9,355.35Zm-48.75-1H228.4V286.17H180.15Z" style="fill:#263238"></path><path d="M204.22,303.05A12.19,12.19,0,0,0,192,315.24C192,322,204.22,335,204.22,335s12.19-13,12.19-19.78A12.19,12.19,0,0,0,204.22,303.05Zm0,17a4.79,4.79,0,1,1,4.79-4.79A4.78,4.78,0,0,1,204.22,320Z" style="fill:#6446FF"></path><path d="M204.22,335.52a.48.48,0,0,1-.36-.16c-.51-.54-12.33-13.27-12.33-20.12a12.69,12.69,0,0,1,25.38,0c0,6.85-11.82,19.58-12.32,20.12A.52.52,0,0,1,204.22,335.52Zm0-32a11.7,11.7,0,0,0-11.69,11.69c0,5.81,9.67,16.81,11.69,19,2-2.23,11.69-13.23,11.69-19A11.7,11.7,0,0,0,204.22,303.55Zm0,17a5.29,5.29,0,1,1,5.29-5.29A5.29,5.29,0,0,1,204.22,320.53Zm0-9.58a4.29,4.29,0,1,0,4.29,4.29A4.29,4.29,0,0,0,204.22,311Z" style="fill:#263238"></path><path d="M228.4,323.67h-7.16a.5.5,0,0,1-.5-.5V294.69H192.57a.5.5,0,0,1-.5-.5V286.4a.51.51,0,0,1,.5-.5.5.5,0,0,1,.5.5v7.29h28.17a.51.51,0,0,1,.5.5v28.48h6.66a.5.5,0,0,1,.5.5A.5.5,0,0,1,228.4,323.67Z" style="fill:#263238"></path><path d="M180.11,309a.52.52,0,0,1-.33-.12.49.49,0,0,1-.05-.7l12.47-14.34a.5.5,0,0,1,.75.66l-12.46,14.33A.52.52,0,0,1,180.11,309Z" style="fill:#263238"></path><path d="M209.4,354.82a.5.5,0,0,1-.5-.5V337.81a.5.5,0,0,1,.5-.5h11.34V323.17a.5.5,0,0,1,.5-.5.5.5,0,0,1,.5.5v14.64a.5.5,0,0,1-.5.5H209.9v16A.5.5,0,0,1,209.4,354.82Z" style="fill:#263238"></path><path d="M228.71,344.85H188.52a.5.5,0,0,1-.5-.5v-9.78h-7.6a.5.5,0,0,1,0-1h8.1a.5.5,0,0,1,.5.5v9.78h39.69a.5.5,0,0,1,.5.5A.5.5,0,0,1,228.71,344.85Z" style="fill:#263238"></path><path d="M195.69,354.82a.5.5,0,0,1-.5-.5v-9.66a.5.5,0,0,1,1,0v9.66A.5.5,0,0,1,195.69,354.82Z" style="fill:#263238"></path><path d="M211.11,304.82a.49.49,0,0,1-.35-.15.5.5,0,0,1,0-.71l10-10V286.4a.5.5,0,0,1,.5-.5.51.51,0,0,1,.5.5v7.79a.53.53,0,0,1-.15.36l-10.13,10.12A.47.47,0,0,1,211.11,304.82Z" style="fill:#263238"></path><path d="M193.82,322.11H180.11a.5.5,0,0,1,0-1h13.71a.5.5,0,1,1,0,1Z" style="fill:#263238"></path></g><g id="freepik--Store--inject-14"><rect x="192.03" y="166.11" width="131.85" height="89.27" style="fill:#fff"></rect><path d="M323.87,255.88H192a.5.5,0,0,1-.5-.5V166.11a.5.5,0,0,1,.5-.5H323.87a.5.5,0,0,1,.5.5v89.27A.5.5,0,0,1,323.87,255.88Zm-131.34-1H323.37V166.61H192.53Z" style="fill:#263238"></path><rect x="192.03" y="237.86" width="131.85" height="17.53" style="fill:#6446FF"></rect><path d="M323.87,255.88H192a.5.5,0,0,1-.5-.5V237.86a.5.5,0,0,1,.5-.5H323.87a.5.5,0,0,1,.5.5v17.52A.5.5,0,0,1,323.87,255.88Zm-131.34-1H323.37V238.36H192.53Z" style="fill:#263238"></path><rect x="277.97" y="168.69" width="44.52" height="50.52" style="fill:#fff"></rect><path d="M322.49,219.72H278a.51.51,0,0,1-.5-.5V168.69a.51.51,0,0,1,.5-.5h44.52a.5.5,0,0,1,.5.5v50.53A.5.5,0,0,1,322.49,219.72Zm-44-1H322V169.19H278.47Z" style="fill:#263238"></path><rect x="193.46" y="168.69" width="44.52" height="50.52" style="fill:#fff"></rect><path d="M238,219.72H193.46a.5.5,0,0,1-.5-.5V168.69a.5.5,0,0,1,.5-.5H238a.51.51,0,0,1,.5.5v50.53A.51.51,0,0,1,238,219.72Zm-44-1h43.52V169.19H194Z" style="fill:#263238"></path><polygon points="322.49 192.33 277.97 207.88 277.97 168.69 322.49 168.69 322.49 192.33" style="fill:#263238"></polygon><path d="M278,208.38a.49.49,0,0,1-.5-.5V168.69a.51.51,0,0,1,.5-.5h44.52a.5.5,0,0,1,.5.5v23.64a.5.5,0,0,1-.33.47l-44.52,15.55A.51.51,0,0,1,278,208.38Zm.5-39.19v38L322,192V169.19Zm44,23.14h0Z" style="fill:#263238"></path><polygon points="237.97 192.33 193.46 210.81 193.46 168.69 237.97 168.69 237.97 192.33" style="fill:#263238"></polygon><path d="M193.46,211.31a.54.54,0,0,1-.28-.08.51.51,0,0,1-.22-.42V168.69a.5.5,0,0,1,.5-.5H238a.51.51,0,0,1,.5.5v23.64a.51.51,0,0,1-.31.46l-44.52,18.48A.43.43,0,0,1,193.46,211.31Zm.5-42.12v40.87L237.48,192V169.19Zm44,23.14Z" style="fill:#263238"></path><rect x="239.75" y="166.11" width="36.4" height="89.27" style="fill:#6446FF"></rect><path d="M276.15,255.88h-36.4a.5.5,0,0,1-.5-.5V166.11a.51.51,0,0,1,.5-.5h36.4a.51.51,0,0,1,.5.5v89.27A.5.5,0,0,1,276.15,255.88Zm-35.9-1h35.4V166.61h-35.4Z" style="fill:#263238"></path><path d="M241.81,214.87h32.28V252H241.81Zm0-45.39v37.15h32.28V169.48Z" style="fill:#fff"></path><path d="M274.09,252.52H241.81a.51.51,0,0,1-.5-.5V214.87a.5.5,0,0,1,.5-.5h32.28a.5.5,0,0,1,.5.5V252A.51.51,0,0,1,274.09,252.52Zm-31.78-1h31.28V215.37H242.31Zm31.78-44.39H241.81a.5.5,0,0,1-.5-.5V169.48a.51.51,0,0,1,.5-.5h32.28a.51.51,0,0,1,.5.5v37.15A.5.5,0,0,1,274.09,207.13Zm-31.78-1h31.28V170H242.31Z" style="fill:#263238"></path><polygon points="274.09 247.78 274.09 243.2 251.42 252.02 263 252.02 274.09 247.78" style="fill:#263238"></polygon><polygon points="241.81 195.84 274.09 181.75 274.09 169.48 241.81 169.48 241.81 195.84" style="fill:#263238"></polygon><polygon points="261.12 206.63 274.09 201.67 274.09 197.57 250.77 206.63 261.12 206.63" style="fill:#263238"></polygon><polygon points="241.81 246.54 274.09 233.3 274.09 214.87 241.81 214.87 241.81 246.54" style="fill:#263238"></polygon><path d="M190.19,167.88c0,.16,0,.33,0,.5a7.54,7.54,0,0,0,15.07,0c0-.17,0-.34,0-.5Z" style="fill:#fff"></path><path d="M197.7,176.41a8,8,0,0,1-8-8c0-.15,0-.29,0-.43v-.1a.5.5,0,0,1,.5-.47h15a.5.5,0,0,1,.5.47v.1c0,.14,0,.28,0,.43A8,8,0,0,1,197.7,176.41Zm-7-8a7,7,0,0,0,14.07,0Z" style="fill:#263238"></path><path d="M204.39,167.88c0,.16,0,.33,0,.5a7.53,7.53,0,0,0,15.06,0c0-.17,0-.34,0-.5Z" style="fill:#6446FF"></path><path d="M211.9,176.41a8,8,0,0,1-8-8c0-.15,0-.3,0-.44a.61.61,0,0,1,.51-.56h15a.5.5,0,0,1,.5.46c0,.24,0,.39,0,.54A8,8,0,0,1,211.9,176.41Zm-7-8a7,7,0,0,0,14.06,0Z" style="fill:#263238"></path><path d="M219.49,167.88c0,.16,0,.33,0,.5a7.53,7.53,0,0,0,15.06,0c0-.17,0-.34,0-.5Z" style="fill:#fff"></path><path d="M227,176.41a8,8,0,0,1-8-8c0-.15,0-.3,0-.45a.59.59,0,0,1,.5-.55h15a.5.5,0,0,1,.5.46c0,.24,0,.39,0,.54A8,8,0,0,1,227,176.41Zm-7-8a7,7,0,0,0,14.06,0Z" style="fill:#263238"></path><path d="M234.59,167.88c0,.16,0,.33,0,.5a7.53,7.53,0,0,0,15.06,0c0-.17,0-.34,0-.5Z" style="fill:#6446FF"></path><path d="M242.1,176.41a8,8,0,0,1-8-8c0-.15,0-.29,0-.43v-.1a.5.5,0,0,1,.5-.47h15a.5.5,0,0,1,.5.47v.1c0,.14,0,.28,0,.43A8,8,0,0,1,242.1,176.41Zm-7-8a7,7,0,0,0,14.06,0Z" style="fill:#263238"></path><path d="M249.69,167.88c0,.16,0,.33,0,.5a7.53,7.53,0,0,0,15.06,0c0-.17,0-.34,0-.5Z" style="fill:#fff"></path><path d="M257.2,176.41a8,8,0,0,1-8-8c0-.15,0-.29,0-.43v-.1a.5.5,0,0,1,.5-.47h15a.5.5,0,0,1,.5.47v.1c0,.14,0,.28,0,.43A8,8,0,0,1,257.2,176.41Zm-7-8a7,7,0,0,0,14.06,0Z" style="fill:#263238"></path><path d="M265,167.88c0,.16,0,.33,0,.5a7.53,7.53,0,1,0,15.06,0c0-.17,0-.34,0-.5Z" style="fill:#6446FF"></path><path d="M272.48,176.41a8,8,0,0,1-8-8c0-.15,0-.3,0-.45a.59.59,0,0,1,.5-.55h15a.5.5,0,0,1,.5.47c0,.23,0,.38,0,.53A8,8,0,0,1,272.48,176.41Zm-7-8a7,7,0,1,0,14.06,0Z" style="fill:#263238"></path><path d="M280.07,167.88c0,.16,0,.33,0,.5a7.53,7.53,0,0,0,15.06,0c0-.17,0-.34,0-.5Z" style="fill:#fff"></path><path d="M287.58,176.41a8,8,0,0,1-8-8c0-.15,0-.29,0-.43v-.1a.5.5,0,0,1,.5-.47h15a.5.5,0,0,1,.5.47v.1c0,.14,0,.28,0,.43A8,8,0,0,1,287.58,176.41Zm-7-8a7,7,0,0,0,14.06,0Z" style="fill:#263238"></path><path d="M295.89,167.88c0,.16,0,.33,0,.5a7.53,7.53,0,0,0,15.06,0c0-.17,0-.34,0-.5Z" style="fill:#6446FF"></path><path d="M303.4,176.41a8,8,0,0,1-8-8c0-.15,0-.29,0-.43v-.1a.5.5,0,0,1,.5-.47h15a.5.5,0,0,1,.5.47v.1c0,.14,0,.28,0,.43A8,8,0,0,1,303.4,176.41Zm-7-8a7,7,0,0,0,14.06,0Z" style="fill:#263238"></path><path d="M311,167.88c0,.16,0,.33,0,.5a7.53,7.53,0,0,0,15.06,0c0-.17,0-.34,0-.5Z" style="fill:#fff"></path><path d="M318.5,176.41a8,8,0,0,1-8-8c0-.15,0-.29,0-.43v-.1a.5.5,0,0,1,.5-.47h15a.5.5,0,0,1,.5.47c0,.23,0,.38,0,.53A8,8,0,0,1,318.5,176.41Zm-7-8a7,7,0,1,0,14.06,0Z" style="fill:#263238"></path><path d="M275,211.25a2.21,2.21,0,1,0-2.21,2.21A2.2,2.2,0,0,0,275,211.25Z" style="fill:#fff"></path><path d="M272.77,214a2.71,2.71,0,1,1,2.71-2.71A2.71,2.71,0,0,1,272.77,214Zm0-4.41a1.71,1.71,0,1,0,1.71,1.7A1.71,1.71,0,0,0,272.77,209.55Z" style="fill:#263238"></path><circle cx="272.77" cy="211.25" r="0.56" style="fill:#fff"></circle><path d="M272.77,212.32a1.07,1.07,0,1,1,1.07-1.07A1.07,1.07,0,0,1,272.77,212.32Zm0-1.13v.13l.07-.07A.07.07,0,0,0,272.77,211.19Z" style="fill:#263238"></path><polygon points="312.92 143.35 203.83 143.94 190.19 168.01 326.22 168.01 312.92 143.35" style="fill:#fff"></polygon><path d="M326.22,168.51h-136a.48.48,0,0,1-.43-.25.48.48,0,0,1,0-.49l13.63-24.08a.52.52,0,0,1,.43-.25l109.1-.59h0a.51.51,0,0,1,.44.26l13.3,24.66a.5.5,0,0,1-.44.74Zm-135.17-1H325.38l-12.76-23.66-108.5.59Z" style="fill:#263238"></path><polygon points="300.68 143.41 203.83 143.94 190.19 168.01 310.88 168.01 300.68 143.41" style="fill:#6446FF"></polygon><path d="M310.88,168.51H190.19a.48.48,0,0,1-.43-.25.48.48,0,0,1,0-.49l13.63-24.08a.52.52,0,0,1,.43-.25l96.86-.53h0a.5.5,0,0,1,.46.31l10.2,24.6a.49.49,0,0,1,0,.47A.51.51,0,0,1,310.88,168.51Zm-119.83-1H310.13l-9.78-23.6-96.23.53Z" style="fill:#263238"></path><polygon points="288.33 143.48 203.83 143.94 190.19 168.01 295.41 168.01 288.33 143.48" style="fill:#fff"></polygon><path d="M295.41,168.51H190.19a.48.48,0,0,1-.43-.25.48.48,0,0,1,0-.49l13.63-24.08a.52.52,0,0,1,.43-.25l84.5-.46a.49.49,0,0,1,.49.36l7.08,24.53a.46.46,0,0,1-.08.44A.48.48,0,0,1,295.41,168.51Zm-104.36-1h103.7L288,144l-83.83.46Z" style="fill:#263238"></path><polygon points="276.24 143.54 203.83 143.94 190.19 168.01 280.31 168.01 276.24 143.54" style="fill:#6446FF"></polygon><path d="M280.31,168.51H190.19a.48.48,0,0,1-.43-.25.48.48,0,0,1,0-.49l13.63-24.08a.52.52,0,0,1,.43-.25l72.42-.4h0a.51.51,0,0,1,.5.42l4.06,24.47a.51.51,0,0,1-.11.41A.5.5,0,0,1,280.31,168.51Zm-89.26-1h88.67l-3.9-23.46-71.7.39Z" style="fill:#263238"></path><polygon points="263.8 143.61 203.83 143.94 190.19 168.01 264.77 168.01 263.8 143.61" style="fill:#fff"></polygon><path d="M264.77,168.51H190.19a.48.48,0,0,1-.43-.25.48.48,0,0,1,0-.49l13.63-24.08a.52.52,0,0,1,.43-.25l60-.33h0a.5.5,0,0,1,.5.48l1,24.4a.47.47,0,0,1-.14.37A.48.48,0,0,1,264.77,168.51Zm-73.72-1h73.2l-.93-23.4-59.2.33Z" style="fill:#263238"></path><polygon points="251.55 143.68 203.83 143.94 190.19 168.01 249.5 168.01 251.55 143.68" style="fill:#6446FF"></polygon><path d="M249.5,168.51H190.19a.48.48,0,0,1-.43-.25.48.48,0,0,1,0-.49l13.63-24.08a.52.52,0,0,1,.43-.25l47.73-.26h0a.5.5,0,0,1,.5.54L250,168.05A.5.5,0,0,1,249.5,168.51Zm-58.45-1h58l2-23.33-46.89.26Z" style="fill:#263238"></path><polygon points="239.58 143.74 203.83 143.94 190.19 168.01 234.6 168.01 239.58 143.74" style="fill:#fff"></polygon><path d="M234.6,168.51H190.19a.48.48,0,0,1-.43-.25.48.48,0,0,1,0-.49l13.63-24.08a.52.52,0,0,1,.43-.25l35.76-.2a.58.58,0,0,1,.39.19.47.47,0,0,1,.1.41l-5,24.27A.5.5,0,0,1,234.6,168.51Zm-43.55-1h43.14L239,144.25l-34.85.19Z" style="fill:#263238"></path><polygon points="227.49 143.81 203.83 143.94 190.19 168.01 219.56 168.01 227.49 143.81" style="fill:#6446FF"></polygon><path d="M219.56,168.51H190.19a.48.48,0,0,1-.43-.25.48.48,0,0,1,0-.49l13.63-24.08a.52.52,0,0,1,.43-.25l23.67-.13h0a.54.54,0,0,1,.41.2.52.52,0,0,1,.07.45L220,168.17A.51.51,0,0,1,219.56,168.51Zm-28.51-1H219.2l7.6-23.2-22.68.13Z" style="fill:#263238"></path><polygon points="215.46 143.87 203.83 143.94 190.19 168.01 204.62 168.01 215.46 143.87" style="fill:#fff"></polygon><path d="M204.61,168.51H190.19a.48.48,0,0,1-.43-.25.48.48,0,0,1,0-.49l13.63-24.08a.52.52,0,0,1,.43-.25l11.63-.07a.5.5,0,0,1,.46.71l-10.84,24.14A.5.5,0,0,1,204.61,168.51Zm-13.56-1h13.24l10.39-23.13-10.56.06Z" style="fill:#263238"></path></g><g id="freepik--Plant--inject-14"><rect x="411.29" y="320.61" width="2" height="110.38" transform="translate(-36.78 44.83) rotate(-5.96)" style="fill:#263238"></rect><rect x="412.57" y="403.16" width="2" height="7.56" transform="translate(-166.53 395.77) rotate(-43.43)" style="fill:#263238"></rect><path d="M412.56,405.84a5.92,5.92,0,0,0-2.07-4.41c-1.34-1.19-8.35-4.14-9-1.67C400.75,402.45,407.93,407.73,412.56,405.84Z" style="fill:#6446FF"></path><path d="M410.37,406.75a11.86,11.86,0,0,1-7.31-3.05c-1.62-1.44-2.38-2.92-2.07-4.07a1.66,1.66,0,0,1,1.24-1.19c2.31-.69,7.4,1.56,8.59,2.62a6.33,6.33,0,0,1,2.23,4.81l0,.31-.29.12A6.17,6.17,0,0,1,410.37,406.75Zm-7.1-7.45a2.93,2.93,0,0,0-.76.09c-.41.13-.51.33-.56.5-.19.73.5,1.94,1.78,3.06,2.2,1.94,5.7,3.39,8.32,2.54a5.49,5.49,0,0,0-1.9-3.68A15,15,0,0,0,403.27,399.3Z" style="fill:#263238"></path><rect x="408.97" y="399.82" width="0.5" height="7.87" transform="matrix(0.53, -0.85, 0.85, 0.53, -149.87, 537.55)" style="fill:#263238"></rect><rect x="413.88" y="415.65" width="2" height="7.56" transform="translate(-174.76 400.09) rotate(-43.43)" style="fill:#263238"></rect><path d="M413.86,418.33a5.88,5.88,0,0,0-2.07-4.41c-1.33-1.19-8.35-4.14-9-1.67C402.05,414.94,409.23,420.21,413.86,418.33Z" style="fill:#6446FF"></path><path d="M411.67,419.23a11.85,11.85,0,0,1-7.3-3c-1.63-1.44-2.39-2.92-2.08-4.07a1.7,1.7,0,0,1,1.24-1.2c2.31-.69,7.4,1.56,8.59,2.63a6.39,6.39,0,0,1,2.24,4.81l0,.31-.29.12A6.4,6.4,0,0,1,411.67,419.23Zm-7.09-7.44a2.83,2.83,0,0,0-.76.09c-.41.12-.52.33-.56.5-.2.73.5,1.93,1.77,3.06,2.2,1.94,5.71,3.38,8.32,2.54a5.48,5.48,0,0,0-1.89-3.69A15.11,15.11,0,0,0,404.58,411.79Z" style="fill:#263238"></path><rect x="410.27" y="412.31" width="0.5" height="7.87" transform="matrix(0.53, -0.85, 0.85, 0.53, -159.86, 544.51)" style="fill:#263238"></rect><rect x="409.39" y="372.69" width="2" height="7.56" transform="translate(-146.45 385.24) rotate(-43.43)" style="fill:#263238"></rect><path d="M409.38,375.37a5.92,5.92,0,0,0-2.07-4.41c-1.34-1.19-8.35-4.14-9-1.67C397.57,372,404.75,377.26,409.38,375.37Z" style="fill:#6446FF"></path><path d="M407.19,376.28a11.86,11.86,0,0,1-7.31-3c-1.62-1.44-2.38-2.92-2.07-4.07a1.66,1.66,0,0,1,1.24-1.19c2.31-.69,7.4,1.56,8.59,2.62a6.33,6.33,0,0,1,2.23,4.81l0,.31-.29.12A6.17,6.17,0,0,1,407.19,376.28Zm-7.1-7.45a2.54,2.54,0,0,0-.76.1.7.7,0,0,0-.56.49c-.19.74.5,1.94,1.78,3.06,2.2,1.94,5.7,3.39,8.32,2.54a5.51,5.51,0,0,0-1.9-3.68A15.06,15.06,0,0,0,400.09,368.83Z" style="fill:#263238"></path><rect x="405.79" y="369.35" width="0.5" height="7.87" transform="translate(-125.53 520.43) rotate(-58.07)" style="fill:#263238"></rect><rect x="410.7" y="385.18" width="2" height="7.56" transform="translate(-154.68 389.56) rotate(-43.43)" style="fill:#263238"></rect><path d="M410.68,387.86a5.88,5.88,0,0,0-2.07-4.41c-1.33-1.19-8.35-4.14-9-1.67C398.87,384.47,406.05,389.75,410.68,387.86Z" style="fill:#6446FF"></path><path d="M408.49,388.76a11.85,11.85,0,0,1-7.3-3c-1.63-1.44-2.39-2.92-2.08-4.07a1.7,1.7,0,0,1,1.24-1.2c2.32-.69,7.4,1.56,8.59,2.63a6.39,6.39,0,0,1,2.24,4.81l0,.31-.29.12A6.21,6.21,0,0,1,408.49,388.76Zm-7.09-7.44a2.83,2.83,0,0,0-.76.09c-.41.12-.52.33-.56.5-.2.73.5,1.93,1.77,3.06,2.2,1.94,5.71,3.38,8.32,2.54a5.48,5.48,0,0,0-1.89-3.69A15.11,15.11,0,0,0,401.4,381.32Z" style="fill:#263238"></path><rect x="407.09" y="381.84" width="0.5" height="7.87" transform="translate(-135.48 527.52) rotate(-58.08)" style="fill:#263238"></rect><rect x="407.28" y="352.41" width="2" height="7.56" transform="translate(-133.09 378.23) rotate(-43.43)" style="fill:#263238"></rect><path d="M407.26,355.09a5.88,5.88,0,0,0-2.07-4.41c-1.33-1.19-8.35-4.14-9-1.67C395.45,351.7,402.63,357,407.26,355.09Z" style="fill:#6446FF"></path><path d="M405.07,356a11.85,11.85,0,0,1-7.3-3c-1.63-1.44-2.39-2.92-2.08-4.07a1.7,1.7,0,0,1,1.24-1.2c2.32-.68,7.4,1.56,8.59,2.63a6.4,6.4,0,0,1,2.24,4.81l0,.31-.29.12A6.21,6.21,0,0,1,405.07,356ZM398,348.55a2.83,2.83,0,0,0-.76.09c-.41.12-.52.33-.56.5-.2.73.5,1.93,1.77,3.06,2.2,1.94,5.71,3.38,8.32,2.54a5.5,5.5,0,0,0-1.89-3.69A15.06,15.06,0,0,0,398,348.55Z" style="fill:#263238"></path><rect x="403.67" y="349.07" width="0.5" height="7.87" transform="translate(-109.28 509.17) rotate(-58.08)" style="fill:#263238"></rect><rect x="405.15" y="332.04" width="2" height="7.56" transform="translate(-119.66 371.19) rotate(-43.43)" style="fill:#263238"></rect><path d="M405.13,334.72a5.89,5.89,0,0,0-2.06-4.41c-1.34-1.19-8.35-4.14-9-1.67C393.33,331.33,400.51,336.61,405.13,334.72Z" style="fill:#6446FF"></path><path d="M403,335.62a11.91,11.91,0,0,1-7.31-3c-1.63-1.44-2.38-2.92-2.07-4.07a1.68,1.68,0,0,1,1.24-1.2c2.31-.69,7.4,1.56,8.59,2.63a6.32,6.32,0,0,1,2.23,4.81l0,.31-.29.12A6.16,6.16,0,0,1,403,335.62Zm-7.1-7.44a2.88,2.88,0,0,0-.76.09.7.7,0,0,0-.56.5c-.2.73.5,1.93,1.77,3.06,2.21,1.94,5.71,3.38,8.33,2.54a5.53,5.53,0,0,0-1.9-3.69A15.06,15.06,0,0,0,395.85,328.18Z" style="fill:#263238"></path><rect x="401.54" y="328.7" width="0.5" height="7.87" transform="matrix(0.53, -0.85, 0.85, 0.53, -93.01, 497.72)" style="fill:#263238"></rect><rect x="413.5" y="398.07" width="7.56" height="2" transform="translate(-141.02 546.33) rotate(-58.5)" style="fill:#263238"></rect><path d="M418,397.79a5.9,5.9,0,0,1,1.12-4.74c1-1.44,7.31-5.78,8.47-3.5C428.9,392,423,398.68,418,397.79Z" style="fill:#6446FF"></path><path d="M419,398.37a6.09,6.09,0,0,1-1-.09l-.31-.06-.08-.3a6.35,6.35,0,0,1,1.19-5.17c.95-1.28,5.43-4.55,7.87-4.34a1.68,1.68,0,0,1,1.46.92c.54,1.05.1,2.66-1.19,4.4C425.14,396.08,422,398.37,419,398.37Zm-.52-1c2.74.29,5.86-1.85,7.62-4.2,1-1.37,1.44-2.68,1.1-3.36a.69.69,0,0,0-.65-.37c-2-.16-6.15,2.81-7,3.94A5.5,5.5,0,0,0,418.47,397.34Z" style="fill:#263238"></path><rect x="416.89" y="394.66" width="8.32" height="0.5" transform="translate(-156.19 400.64) rotate(-43.73)" style="fill:#263238"></rect><rect x="410.07" y="365.22" width="7.55" height="2" transform="translate(-114.64 527.72) rotate(-58.5)" style="fill:#263238"></rect><path d="M414.61,364.93a5.91,5.91,0,0,1,1.12-4.74c1.06-1.44,7.31-5.77,8.47-3.49C425.47,359.18,419.53,365.82,414.61,364.93Z" style="fill:#6446FF"></path><path d="M415.56,365.51a5.22,5.22,0,0,1-1-.09l-.31-.05-.08-.31a6.33,6.33,0,0,1,1.19-5.16c.95-1.29,5.44-4.55,7.87-4.35a1.68,1.68,0,0,1,1.46.92c.54,1.06.1,2.66-1.19,4.41C421.71,363.23,418.61,365.51,415.56,365.51Zm-.52-1c2.74.28,5.86-1.85,7.62-4.21,1-1.36,1.44-2.68,1.1-3.36a.72.72,0,0,0-.65-.37c-1.93-.15-6.15,2.81-7,3.94A5.52,5.52,0,0,0,415,364.49Z" style="fill:#263238"></path><rect x="413.46" y="361.81" width="8.32" height="0.5" transform="translate(-134.43 389.16) rotate(-43.73)" style="fill:#263238"></rect><rect x="408.56" y="350.78" width="7.55" height="2" transform="translate(-103.05 519.54) rotate(-58.5)" style="fill:#263238"></rect><path d="M413.11,350.49a5.88,5.88,0,0,1,1.11-4.74c1.06-1.44,7.31-5.77,8.48-3.49C424,344.74,418,351.38,413.11,350.49Z" style="fill:#6446FF"></path><path d="M414.05,351.08a5.14,5.14,0,0,1-1-.1l-.31-.05-.09-.31a6.41,6.41,0,0,1,1.2-5.16c.94-1.29,5.47-4.54,7.86-4.35a1.68,1.68,0,0,1,1.46.92c.54,1.06.11,2.67-1.19,4.41C420.2,348.79,417.1,351.08,414.05,351.08Zm-.52-1c2.72.28,5.86-1.85,7.62-4.21,1-1.36,1.45-2.68,1.1-3.36a.71.71,0,0,0-.65-.37c-1.94-.16-6.15,2.81-7,3.94A5.53,5.53,0,0,0,413.53,350.05Z" style="fill:#263238"></path><rect x="411.95" y="347.37" width="8.32" height="0.5" transform="translate(-124.86 384.11) rotate(-43.73)" style="fill:#263238"></rect><rect x="406.35" y="329.61" width="7.55" height="2" transform="translate(-86.06 507.55) rotate(-58.5)" style="fill:#263238"></rect><path d="M410.9,329.32a5.88,5.88,0,0,1,1.11-4.74c1.06-1.44,7.32-5.77,8.48-3.49C421.75,323.57,415.81,330.22,410.9,329.32Z" style="fill:#6446FF"></path><path d="M411.84,329.91a5.14,5.14,0,0,1-1-.1l-.31-.05-.08-.3a6.35,6.35,0,0,1,1.19-5.17c.94-1.29,5.44-4.55,7.86-4.34a1.67,1.67,0,0,1,1.46.91c.54,1.06.11,2.67-1.19,4.41C418,327.62,414.89,329.91,411.84,329.91Zm-.52-1c2.73.29,5.87-1.85,7.62-4.21,1-1.36,1.45-2.68,1.1-3.36a.71.71,0,0,0-.65-.37c-1.92-.18-6.15,2.81-7,3.94A5.53,5.53,0,0,0,411.32,328.88Z" style="fill:#263238"></path><rect x="409.74" y="326.2" width="8.32" height="0.5" transform="translate(-110.84 376.71) rotate(-43.73)" style="fill:#263238"></rect><path d="M406.46,320.29a5.88,5.88,0,0,1,1.12-4.73c1.06-1.44,7.31-5.78,8.47-3.5C417.32,314.54,411.38,321.19,406.46,320.29Z" style="fill:#6446FF"></path><path d="M407.41,320.88a6.09,6.09,0,0,1-1-.09l-.3-.06-.09-.3a6.35,6.35,0,0,1,1.19-5.17c.95-1.29,5.43-4.56,7.87-4.34a1.67,1.67,0,0,1,1.46.91c.54,1.06.1,2.67-1.19,4.41C413.56,318.59,410.46,320.88,407.41,320.88Zm-.52-1c2.73.29,5.86-1.85,7.62-4.2,1-1.37,1.44-2.69,1.1-3.36a.69.69,0,0,0-.65-.37c-1.95-.16-6.15,2.81-7,3.93A5.53,5.53,0,0,0,406.89,319.85Z" style="fill:#263238"></path><rect x="405.31" y="317.17" width="8.32" height="0.5" transform="translate(-105.83 371.14) rotate(-43.73)" style="fill:#263238"></rect><path d="M406.81,320.54a5.86,5.86,0,0,1-4.59-1.6c-1.32-1.21-5-7.88-2.59-8.8C402.23,309.15,408.22,315.75,406.81,320.54Z" style="fill:#6446FF"></path><path d="M406.28,321.08a6.54,6.54,0,0,1-4.4-1.77c-1.18-1.08-3.94-5.91-3.49-8.28a1.71,1.71,0,0,1,1.06-1.36c1.11-.42,2.66.18,4.26,1.65,2.4,2.21,4.54,6.09,3.58,9.36l-.09.3-.31.06A4.83,4.83,0,0,1,406.28,321.08Zm-6.08-10.54a1,1,0,0,0-.39.07.7.7,0,0,0-.44.61c-.36,1.91,2.15,6.41,3.18,7.35a5.44,5.44,0,0,0,3.87,1.5c.57-2.68-1.23-6-3.39-8A4.89,4.89,0,0,0,400.2,310.54Z" style="fill:#263238"></path><rect x="404.02" y="313.09" width="0.5" height="8.32" transform="translate(-109.6 313.33) rotate(-37.69)" style="fill:#263238"></rect><rect x="375.89" y="389.92" width="110.38" height="2" transform="translate(-2.34 779.24) rotate(-84.06)" style="fill:#263238"></rect><rect x="424.93" y="417.88" width="2" height="7.56" transform="translate(-157.67 285.19) rotate(-31.55)" style="fill:#263238"></rect><path d="M425.16,420.37a5.88,5.88,0,0,0-1.12-4.73c-1.06-1.44-7.32-5.78-8.48-3.5C414.3,414.63,420.24,421.27,425.16,420.37Z" style="fill:#6446FF"></path><path d="M424.21,421c-3,0-6.15-2.29-7.9-4.64-1.3-1.74-1.73-3.34-1.19-4.4a1.68,1.68,0,0,1,1.46-.92c2.4-.2,6.92,3.05,7.87,4.34a6.35,6.35,0,0,1,1.19,5.17l-.08.3-.31.06A6.09,6.09,0,0,1,424.21,421Zm-7.4-9h-.15a.69.69,0,0,0-.65.37c-.34.68.09,2,1.1,3.36,1.76,2.35,4.89,4.49,7.62,4.2a5.48,5.48,0,0,0-1.09-4C422.83,414.84,418.81,412,416.81,412Z" style="fill:#263238"></path><polygon points="424.99 420.55 419.31 415.1 419.65 414.74 425.33 420.19 424.99 420.55" style="fill:#263238"></polygon><rect x="428.09" y="387.41" width="2" height="7.55" transform="translate(-141.27 282.37) rotate(-31.55)" style="fill:#263238"></rect><path d="M428.32,389.9a5.84,5.84,0,0,0-1.12-4.73c-1.05-1.44-7.31-5.78-8.47-3.5C417.46,384.16,423.41,390.8,428.32,389.9Z" style="fill:#6446FF"></path><path d="M427.37,390.49c-3,0-6.15-2.29-7.9-4.63-1.29-1.75-1.73-3.35-1.19-4.41a1.68,1.68,0,0,1,1.46-.92c2.4-.2,6.92,3.05,7.87,4.34A6.35,6.35,0,0,1,428.8,390l-.08.3-.31.06A6,6,0,0,1,427.37,390.49Zm-7.39-9h-.16a.7.7,0,0,0-.65.37c-.34.68.09,2,1.11,3.36,1.75,2.35,4.89,4.5,7.62,4.2a5.5,5.5,0,0,0-1.1-4C426,384.37,422,381.52,420,381.52Z" style="fill:#263238"></path><polygon points="428.15 390.08 422.47 384.63 422.81 384.27 428.49 389.72 428.15 390.08" style="fill:#263238"></polygon><rect x="426.8" y="399.9" width="2" height="7.56" transform="translate(-148 283.57) rotate(-31.56)" style="fill:#263238"></rect><path d="M427,402.39a5.88,5.88,0,0,0-1.11-4.74c-1.06-1.44-7.32-5.77-8.48-3.49C416.17,396.64,422.11,403.29,427,402.39Z" style="fill:#6446FF"></path><path d="M426.08,403c-3.05,0-6.15-2.28-7.9-4.63-1.3-1.74-1.73-3.35-1.2-4.41a1.72,1.72,0,0,1,1.46-.91c2.42-.18,6.93,3.05,7.87,4.34a6.36,6.36,0,0,1,1.2,5.16l-.09.31-.31.05A6,6,0,0,1,426.08,403Zm-7.4-9h-.15c-.43,0-.58.21-.65.37-.35.67.08,2,1.1,3.35,1.76,2.36,4.89,4.51,7.62,4.21a5.53,5.53,0,0,0-1.09-4C424.7,396.85,420.68,394,418.68,394Z" style="fill:#263238"></path><polygon points="426.85 402.57 421.17 397.12 421.52 396.76 427.2 402.21 426.85 402.57" style="fill:#263238"></polygon><rect x="430.2" y="367.13" width="2" height="7.56" transform="translate(-130.33 280.44) rotate(-31.55)" style="fill:#263238"></rect><path d="M430.43,369.62a5.9,5.9,0,0,0-1.12-4.74c-1.06-1.44-7.32-5.77-8.48-3.49C419.57,363.87,425.51,370.52,430.43,369.62Z" style="fill:#6446FF"></path><path d="M429.48,370.2c-3.05,0-6.15-2.28-7.9-4.63-1.3-1.74-1.73-3.35-1.2-4.41a1.7,1.7,0,0,1,1.46-.91c2.4-.19,6.92,3.05,7.87,4.33a6.38,6.38,0,0,1,1.2,5.17l-.09.3-.31.06A6,6,0,0,1,429.48,370.2Zm-7.4-9h-.16a.68.68,0,0,0-.64.38c-.35.67.09,2,1.1,3.35,1.76,2.36,4.89,4.51,7.62,4.2a5.52,5.52,0,0,0-1.09-4C428.1,364.08,424.08,361.24,422.08,361.24Z" style="fill:#263238"></path><polygon points="430.25 369.8 424.57 364.35 424.92 363.99 430.6 369.44 430.25 369.8" style="fill:#263238"></polygon><rect x="432.31" y="346.76" width="2" height="7.55" transform="translate(-119.37 278.57) rotate(-31.55)" style="fill:#263238"></rect><path d="M432.54,349.25a5.9,5.9,0,0,0-1.12-4.74c-1.06-1.44-7.31-5.77-8.48-3.49C421.68,343.5,427.62,350.14,432.54,349.25Z" style="fill:#6446FF"></path><path d="M431.59,349.83c-3,0-6.15-2.28-7.9-4.63-1.29-1.74-1.73-3.35-1.19-4.41a1.67,1.67,0,0,1,1.46-.91c2.42-.17,6.92,3.05,7.87,4.33a6.35,6.35,0,0,1,1.19,5.17l-.08.3-.31.06A6,6,0,0,1,431.59,349.83Zm-7.39-9H424a.71.71,0,0,0-.65.37c-.34.68.09,2,1.11,3.36,1.75,2.36,4.89,4.5,7.62,4.2a5.53,5.53,0,0,0-1.1-4C430.21,343.71,426.19,340.87,424.2,340.87Z" style="fill:#263238"></path><polygon points="432.37 349.43 426.69 343.98 427.03 343.62 432.71 349.06 432.37 349.43" style="fill:#263238"></polygon><rect x="427.39" y="413.72" width="7.56" height="2" transform="translate(-166.42 442.86) rotate(-46.58)" style="fill:#263238"></rect><path d="M432.19,413.62a5.88,5.88,0,0,1,2.06-4.4c1.33-1.19,8.35-4.15,9-1.68C444,410.23,436.81,415.51,432.19,413.62Z" style="fill:#6446FF"></path><path d="M434.37,414.53a6.35,6.35,0,0,1-2.37-.44l-.29-.12,0-.31a6.34,6.34,0,0,1,2.23-4.82c1.19-1.06,6.27-3.31,8.59-2.63a1.7,1.7,0,0,1,1.24,1.2c.31,1.15-.45,2.63-2.07,4.07A11.86,11.86,0,0,1,434.37,414.53Zm-1.68-1.25c2.62.84,6.12-.61,8.32-2.55,1.28-1.13,2-2.33,1.77-3.06,0-.17-.15-.38-.56-.5-1.86-.55-6.59,1.49-7.64,2.42A5.53,5.53,0,0,0,432.69,413.28Z" style="fill:#263238"></path><rect x="431.56" y="411.18" width="8.32" height="0.5" transform="translate(-151.33 291.04) rotate(-31.77)" style="fill:#263238"></rect><rect x="430.8" y="380.86" width="7.56" height="2" transform="translate(-141.48 435.07) rotate(-46.58)" style="fill:#263238"></rect><path d="M435.6,380.76a5.88,5.88,0,0,1,2.06-4.4c1.33-1.19,8.35-4.15,9-1.68C447.4,377.37,440.22,382.65,435.6,380.76Z" style="fill:#6446FF"></path><path d="M437.78,381.67a6.35,6.35,0,0,1-2.37-.44l-.29-.12,0-.32a6.34,6.34,0,0,1,2.23-4.81c1.19-1.06,6.27-3.32,8.59-2.62a1.68,1.68,0,0,1,1.24,1.19c.31,1.15-.45,2.63-2.07,4.07A11.86,11.86,0,0,1,437.78,381.67Zm-1.68-1.25c2.62.84,6.12-.61,8.32-2.55,1.28-1.12,2-2.33,1.77-3.06,0-.17-.15-.37-.56-.5-1.86-.55-6.59,1.49-7.64,2.42A5.53,5.53,0,0,0,436.1,380.42Z" style="fill:#263238"></path><rect x="434.97" y="378.32" width="8.32" height="0.5" transform="translate(-133.52 287.91) rotate(-31.77)" style="fill:#263238"></rect><rect x="432.3" y="366.42" width="7.56" height="2" transform="translate(-130.53 431.64) rotate(-46.58)" style="fill:#263238"></rect><path d="M437.09,366.32a5.86,5.86,0,0,1,2.07-4.4c1.33-1.19,8.35-4.15,9-1.68C448.9,362.93,441.72,368.21,437.09,366.32Z" style="fill:#6446FF"></path><path d="M439.28,367.23a6.35,6.35,0,0,1-2.37-.44l-.29-.12,0-.31a6.34,6.34,0,0,1,2.23-4.82c1.19-1.06,6.27-3.32,8.59-2.62a1.68,1.68,0,0,1,1.24,1.19c.31,1.15-.45,2.63-2.08,4.07A11.81,11.81,0,0,1,439.28,367.23ZM437.6,366c2.62.84,6.12-.61,8.32-2.55,1.28-1.13,2-2.33,1.77-3.06,0-.17-.15-.37-.56-.5-1.86-.55-6.6,1.49-7.64,2.42A5.53,5.53,0,0,0,437.6,366Z" style="fill:#263238"></path><rect x="436.47" y="363.88" width="8.32" height="0.5" transform="translate(-125.7 286.54) rotate(-31.77)" style="fill:#263238"></rect><rect x="434.5" y="345.25" width="7.55" height="2" transform="translate(-114.46 426.62) rotate(-46.58)" style="fill:#263238"></rect><path d="M439.29,345.15a5.86,5.86,0,0,1,2.07-4.4c1.33-1.19,8.34-4.15,9-1.68C451.1,341.76,443.92,347,439.29,345.15Z" style="fill:#6446FF"></path><path d="M441.47,346.06a6.35,6.35,0,0,1-2.37-.44l-.29-.12,0-.31a6.4,6.4,0,0,1,2.23-4.81c1.19-1.07,6.28-3.32,8.59-2.63a1.66,1.66,0,0,1,1.24,1.19c.31,1.15-.44,2.63-2.07,4.07A11.84,11.84,0,0,1,441.47,346.06Zm-1.67-1.25c2.62.84,6.12-.6,8.32-2.55,1.27-1.13,2-2.33,1.77-3.06-.05-.17-.15-.37-.56-.5-1.87-.55-6.6,1.49-7.64,2.42A5.48,5.48,0,0,0,439.8,344.81Z" style="fill:#263238"></path><rect x="438.67" y="342.71" width="8.32" height="0.5" transform="translate(-114.22 284.52) rotate(-31.77)" style="fill:#263238"></rect><path d="M436.81,335.41a5.88,5.88,0,0,1,2.07-4.41c1.33-1.19,8.34-4.15,9-1.68C448.62,332,441.44,337.29,436.81,335.41Z" style="fill:#6446FF"></path><path d="M439,336.31a6.16,6.16,0,0,1-2.37-.44l-.29-.12,0-.31a6.37,6.37,0,0,1,2.23-4.81c1.19-1.07,6.28-3.32,8.59-2.63a1.66,1.66,0,0,1,1.24,1.19c.31,1.15-.44,2.63-2.07,4.07A11.86,11.86,0,0,1,439,336.31Zm-1.67-1.25c2.61.84,6.12-.6,8.32-2.55,1.27-1.12,2-2.32,1.77-3.06a.7.7,0,0,0-.56-.49c-1.87-.56-6.6,1.48-7.64,2.41A5.45,5.45,0,0,0,437.32,335.06Z" style="fill:#263238"></path><polygon points="436.94 335.62 436.68 335.19 443.75 330.81 444.01 331.23 436.94 335.62" style="fill:#263238"></polygon><path d="M437.1,335.72a5.84,5.84,0,0,1-4.16-2.51c-1.05-1.45-3.25-8.74-.73-9.14C435,323.63,439.46,331.32,437.1,335.72Z" style="fill:#6446FF"></path><path d="M437.39,336.23h-.31a6.31,6.31,0,0,1-4.55-2.72c-.94-1.3-2.64-6.59-1.71-8.82a1.68,1.68,0,0,1,1.31-1.11c1.18-.18,2.57.72,3.83,2.49,1.89,2.66,3.2,6.89,1.58,9.9Zm-4.95-11.68h-.15a.69.69,0,0,0-.55.5c-.75,1.8.78,6.72,1.6,7.85a5.44,5.44,0,0,0,3.47,2.27c1.11-2.51,0-6.15-1.66-8.54C434.23,325.35,433.19,324.55,432.44,324.55Z" style="fill:#263238"></path><rect x="435.04" y="327.82" width="0.5" height="8.32" transform="translate(-101.1 222.58) rotate(-25.8)" style="fill:#263238"></rect><rect x="422.72" y="291.31" width="2" height="138.84" style="fill:#263238"></rect><rect x="420.54" y="402.51" width="2" height="7.55" transform="matrix(0.79, -0.61, 0.61, 0.79, -160.2, 340.36)" style="fill:#263238"></rect><path d="M420.64,405.08a5.87,5.87,0,0,0-1.6-4.59c-1.2-1.32-7.88-5-8.8-2.6C409.25,400.49,415.84,406.48,420.64,405.08Z" style="fill:#6446FF"></path><path d="M419.1,405.8c-2.85,0-5.84-1.83-7.68-3.83-1.47-1.6-2.07-3.15-1.64-4.26a1.67,1.67,0,0,1,1.35-1.06c2.38-.45,7.2,2.32,8.28,3.5a6.33,6.33,0,0,1,1.72,5l-.05.31-.3.08A6,6,0,0,1,419.1,405.8Zm-7.37-8.2a2.54,2.54,0,0,0-.41,0,.7.7,0,0,0-.61.44c-.27.71.3,2,1.45,3.22,2,2.17,5.32,4,8,3.4a5.54,5.54,0,0,0-1.5-3.87C417.79,399.86,413.8,397.6,411.73,397.6Z" style="fill:#263238"></path><rect x="417.28" y="398.73" width="0.5" height="7.87" transform="translate(-156.67 484.95) rotate(-52.12)" style="fill:#263238"></rect><rect x="420.54" y="376.41" width="2" height="7.56" transform="translate(-144.32 334.93) rotate(-37.47)" style="fill:#263238"></rect><path d="M420.64,379a5.86,5.86,0,0,0-1.6-4.59c-1.2-1.33-7.88-5-8.8-2.6C409.25,374.4,415.84,380.39,420.64,379Z" style="fill:#6446FF"></path><path d="M419.1,379.71c-2.85,0-5.84-1.83-7.68-3.83-1.47-1.6-2.07-3.15-1.64-4.26a1.65,1.65,0,0,1,1.35-1.06c2.37-.45,7.2,2.32,8.28,3.5a6.32,6.32,0,0,1,1.72,5l-.05.31-.3.09A6,6,0,0,1,419.1,379.71Zm-7.37-8.21a2.48,2.48,0,0,0-.41,0c-.42.08-.55.27-.61.44-.27.71.3,2,1.45,3.22,2,2.17,5.32,4,8,3.39a5.52,5.52,0,0,0-1.5-3.86C417.79,373.77,413.8,371.5,411.73,371.5Z" style="fill:#263238"></path><rect x="417.28" y="372.64" width="0.5" height="7.87" transform="translate(-136.08 474.82) rotate(-52.11)" style="fill:#263238"></rect><rect x="420.54" y="345.78" width="2" height="7.56" transform="translate(-125.68 328.6) rotate(-37.47)" style="fill:#263238"></rect><path d="M420.64,348.36a5.89,5.89,0,0,0-1.6-4.6c-1.2-1.32-7.88-5-8.8-2.6C409.25,343.76,415.84,349.76,420.64,348.36Z" style="fill:#6446FF"></path><path d="M419.1,349.07c-2.85,0-5.84-1.82-7.68-3.82-1.47-1.6-2.07-3.16-1.64-4.27a1.69,1.69,0,0,1,1.35-1.06c2.37-.45,7.2,2.32,8.28,3.51a6.31,6.31,0,0,1,1.72,5l-.05.31-.3.09A6,6,0,0,1,419.1,349.07Zm-7.37-8.2a1.73,1.73,0,0,0-.41,0,.68.68,0,0,0-.61.43c-.27.71.3,2,1.45,3.23,2,2.16,5.32,4,8,3.39a5.52,5.52,0,0,0-1.5-3.86C417.79,343.13,413.8,340.87,411.73,340.87Z" style="fill:#263238"></path><rect x="417.28" y="342.01" width="0.5" height="7.87" transform="translate(-111.91 463) rotate(-52.11)" style="fill:#263238"></rect><rect x="420.54" y="325.39" width="2" height="7.55" transform="matrix(0.79, -0.61, 0.61, 0.79, -113.27, 324.44)" style="fill:#263238"></rect><path d="M420.64,328a5.89,5.89,0,0,0-1.6-4.6c-1.2-1.32-7.88-5-8.8-2.6C409.25,323.37,415.84,329.36,420.64,328Z" style="fill:#6446FF"></path><path d="M419.1,328.68c-2.85,0-5.84-1.83-7.68-3.83-1.47-1.6-2.07-3.15-1.64-4.26a1.67,1.67,0,0,1,1.35-1.06c2.38-.46,7.2,2.32,8.28,3.5a6.33,6.33,0,0,1,1.72,5l-.05.31-.3.09A6,6,0,0,1,419.1,328.68Zm-7.37-8.2a2.54,2.54,0,0,0-.41,0,.7.7,0,0,0-.61.44c-.27.71.3,2,1.45,3.23,2,2.16,5.32,4,8,3.39a5.5,5.5,0,0,0-1.5-3.86C417.79,322.74,413.8,320.48,411.73,320.48Z" style="fill:#263238"></path><rect x="417.28" y="321.61" width="0.5" height="7.87" transform="translate(-95.81 455.13) rotate(-52.11)" style="fill:#263238"></rect><rect x="420.54" y="304.9" width="2" height="7.56" transform="translate(-100.81 320.17) rotate(-37.47)" style="fill:#263238"></rect><path d="M420.64,307.48a5.87,5.87,0,0,0-1.6-4.59c-1.2-1.33-7.88-5-8.8-2.6C409.25,302.89,415.84,308.88,420.64,307.48Z" style="fill:#6446FF"></path><path d="M419.1,308.2c-2.85,0-5.84-1.83-7.68-3.83-1.47-1.6-2.07-3.15-1.64-4.26a1.67,1.67,0,0,1,1.35-1.06c2.4-.44,7.2,2.32,8.28,3.5a6.33,6.33,0,0,1,1.72,5l-.05.31-.3.08A6,6,0,0,1,419.1,308.2Zm-7.37-8.2a2.54,2.54,0,0,0-.41,0,.7.7,0,0,0-.61.44c-.27.71.3,2,1.45,3.22,2,2.17,5.32,4,8,3.4a5.54,5.54,0,0,0-1.5-3.87C417.79,302.26,413.8,300,411.73,300Z" style="fill:#263238"></path><rect x="417.28" y="301.13" width="0.5" height="7.87" transform="translate(-79.64 447.28) rotate(-52.12)" style="fill:#263238"></rect><rect x="422.25" y="413.25" width="7.56" height="2" transform="translate(-161.91 500.45) rotate(-52.54)" style="fill:#263238"></rect><path d="M426.93,413.05a5.86,5.86,0,0,1,1.6-4.59c1.2-1.33,7.87-5,8.79-2.6C438.32,408.46,431.73,414.45,426.93,413.05Z" style="fill:#6446FF"></path><path d="M428.47,413.76a6,6,0,0,1-1.68-.23l-.3-.09-.05-.31a6.32,6.32,0,0,1,1.72-5c1.08-1.18,5.89-4,8.27-3.5a1.67,1.67,0,0,1,1.36,1.06c.43,1.11-.17,2.66-1.64,4.26C434.31,411.94,431.31,413.76,428.47,413.76Zm-1.07-1.11c2.68.57,6-1.23,8-3.39,1.15-1.25,1.72-2.51,1.45-3.22a.72.72,0,0,0-.61-.44c-1.9-.35-6.41,2.16-7.35,3.19A5.52,5.52,0,0,0,427.4,412.65Z" style="fill:#263238"></path><polygon points="427.08 413.25 426.78 412.85 433.36 407.76 433.66 408.15 427.08 413.25" style="fill:#263238"></polygon><rect x="422.25" y="371.75" width="7.56" height="2" transform="translate(-128.97 484.19) rotate(-52.54)" style="fill:#263238"></rect><path d="M426.93,371.55a5.87,5.87,0,0,1,1.6-4.59c1.2-1.33,7.87-5,8.79-2.6C438.32,367,431.73,373,426.93,371.55Z" style="fill:#6446FF"></path><path d="M428.47,372.27a6,6,0,0,1-1.68-.24l-.3-.08-.05-.31a6.33,6.33,0,0,1,1.72-5c1.08-1.18,5.9-3.94,8.27-3.5a1.67,1.67,0,0,1,1.36,1.06c.43,1.11-.17,2.66-1.64,4.26C434.31,370.44,431.31,372.27,428.47,372.27Zm-1.07-1.11c2.68.56,6-1.24,8-3.4,1.15-1.25,1.72-2.51,1.45-3.22a.72.72,0,0,0-.61-.44c-1.91-.36-6.41,2.16-7.35,3.19A5.54,5.54,0,0,0,427.4,371.16Z" style="fill:#263238"></path><polygon points="427.08 371.75 426.78 371.36 433.36 366.26 433.66 366.66 427.08 371.75" style="fill:#263238"></polygon><rect x="422.25" y="351.27" width="7.55" height="2" transform="translate(-112.72 476.17) rotate(-52.54)" style="fill:#263238"></rect><path d="M426.93,351.07a5.86,5.86,0,0,1,1.6-4.59c1.2-1.33,7.87-5,8.79-2.6C438.32,346.48,431.73,352.47,426.93,351.07Z" style="fill:#6446FF"></path><path d="M428.47,351.78a6,6,0,0,1-1.68-.23l-.3-.09-.05-.31a6.32,6.32,0,0,1,1.72-5c1.08-1.18,5.91-4,8.27-3.5a1.66,1.66,0,0,1,1.36,1.06c.43,1.11-.17,2.66-1.64,4.26C434.31,350,431.31,351.78,428.47,351.78Zm-1.07-1.11c2.68.58,6-1.23,8-3.39,1.15-1.25,1.72-2.51,1.45-3.22a.7.7,0,0,0-.61-.44c-1.9-.35-6.41,2.16-7.35,3.19A5.52,5.52,0,0,0,427.4,350.67Z" style="fill:#263238"></path><polygon points="427.08 351.27 426.78 350.88 433.36 345.78 433.66 346.18 427.08 351.27" style="fill:#263238"></polygon><rect x="422.25" y="324.2" width="7.56" height="2" transform="translate(-91.23 465.56) rotate(-52.54)" style="fill:#263238"></rect><path d="M426.93,324a5.89,5.89,0,0,1,1.6-4.6c1.2-1.32,7.87-5,8.79-2.59C438.32,319.4,431.73,325.4,426.93,324Z" style="fill:#6446FF"></path><path d="M428.47,324.71a6,6,0,0,1-1.68-.23l-.3-.09-.05-.31a6.31,6.31,0,0,1,1.72-5c1.08-1.19,5.9-3.95,8.27-3.51a1.68,1.68,0,0,1,1.36,1.07c.43,1.11-.17,2.66-1.64,4.26C434.31,322.89,431.31,324.71,428.47,324.71Zm-1.07-1.11c2.68.57,6-1.23,8-3.39,1.15-1.25,1.72-2.52,1.45-3.22a.7.7,0,0,0-.61-.44c-1.91-.36-6.41,2.16-7.35,3.19A5.52,5.52,0,0,0,427.4,323.6Z" style="fill:#263238"></path><polygon points="427.08 324.2 426.78 323.8 433.36 318.71 433.66 319.1 427.08 324.2" style="fill:#263238"></polygon><rect x="422.25" y="302.92" width="7.56" height="2" transform="translate(-74.33 457.22) rotate(-52.54)" style="fill:#263238"></rect><path d="M426.93,302.72a5.89,5.89,0,0,1,1.6-4.6c1.2-1.32,7.87-5,8.79-2.6C438.32,298.12,431.73,304.12,426.93,302.72Z" style="fill:#6446FF"></path><path d="M428.47,303.43a6,6,0,0,1-1.68-.23l-.3-.09-.05-.31a6.33,6.33,0,0,1,1.72-5c1.08-1.18,5.91-3.95,8.27-3.5a1.69,1.69,0,0,1,1.36,1.06c.43,1.11-.17,2.66-1.64,4.26C434.31,301.6,431.31,303.43,428.47,303.43Zm-1.07-1.11c2.68.57,6-1.23,8-3.39,1.15-1.25,1.72-2.52,1.45-3.23a.72.72,0,0,0-.61-.44c-1.9-.35-6.41,2.16-7.35,3.2A5.5,5.5,0,0,0,427.4,302.32Z" style="fill:#263238"></path><polygon points="427.08 302.91 426.78 302.52 433.36 297.43 433.66 297.82 427.08 302.91" style="fill:#263238"></polygon><path d="M423.46,293.28a5.89,5.89,0,0,1,1.6-4.6c1.2-1.32,7.87-5,8.79-2.6C434.85,288.68,428.25,294.68,423.46,293.28Z" style="fill:#6446FF"></path><path d="M425,294a5.93,5.93,0,0,1-1.68-.23l-.3-.09-.06-.31a6.41,6.41,0,0,1,1.73-5c1.07-1.18,5.89-4,8.27-3.5a1.69,1.69,0,0,1,1.36,1.06c.42,1.11-.18,2.67-1.65,4.27C430.83,292.17,427.84,294,425,294Zm-1.07-1.11c2.67.57,6-1.23,8-3.39,1.15-1.25,1.72-2.52,1.44-3.23a.68.68,0,0,0-.6-.44c-1.91-.36-6.41,2.16-7.35,3.2A5.46,5.46,0,0,0,423.93,292.88Z" style="fill:#263238"></path><polygon points="423.61 293.48 423.31 293.08 429.88 287.99 430.19 288.38 423.61 293.48" style="fill:#263238"></polygon><path d="M423.78,293.56a5.85,5.85,0,0,1-4.4-2.07c-1.19-1.34-4.14-8.36-1.67-9C420.4,281.75,425.67,288.94,423.78,293.56Z" style="fill:#6446FF"></path><path d="M423.68,294.06a6.45,6.45,0,0,1-4.68-2.24c-1.06-1.19-3.3-6.28-2.61-8.59a1.66,1.66,0,0,1,1.19-1.24c1.16-.31,2.63.45,4.07,2.08,2.15,2.44,3.89,6.52,2.59,9.68l-.12.29-.31,0Zm-5.57-11.14a1.18,1.18,0,0,0-.27,0,.73.73,0,0,0-.5.56c-.55,1.86,1.48,6.6,2.41,7.65a5.46,5.46,0,0,0,3.68,1.89c.85-2.61-.59-6.12-2.53-8.32A4.6,4.6,0,0,0,418.11,282.92Z" style="fill:#263238"></path><rect x="421.34" y="285.86" width="0.5" height="8.32" transform="translate(-89.51 265.03) rotate(-31.73)" style="fill:#263238"></rect><polygon points="429.44 466.17 414.73 466.17 412.89 429.03 431.27 429.03 429.44 466.17" style="fill:#263238"></polygon><path d="M429.91,466.67H414.26l-1.89-38.14H431.8Zm-14.7-1H429l1.79-36.14H413.42Z" style="fill:#263238"></path></g><g id="freepik--Heart--inject-14"><path d="M434.84,157.79H383.23a5.71,5.71,0,0,0-5.71,5.7V196a5.71,5.71,0,0,0,5.71,5.7h1.11l-19.53,19.1,30.74-19.1h39.29a5.71,5.71,0,0,0,5.7-5.7V163.49A5.7,5.7,0,0,0,434.84,157.79Z" style="fill:#fff"></path><path d="M364.81,221.31a.48.48,0,0,1-.39-.19.49.49,0,0,1,0-.66l18.66-18.25A6.22,6.22,0,0,1,377,196V163.49a6.21,6.21,0,0,1,6.21-6.2h51.61a6.21,6.21,0,0,1,6.2,6.2V196a6.21,6.21,0,0,1-6.2,6.21H395.69l-30.62,19A.48.48,0,0,1,364.81,221.31Zm18.42-63a5.21,5.21,0,0,0-5.21,5.2V196a5.22,5.22,0,0,0,5.21,5.21h1.11a.5.5,0,0,1,.35.86L368.42,218l26.86-16.7a.5.5,0,0,1,.27-.07h39.29A5.22,5.22,0,0,0,440,196V163.49a5.21,5.21,0,0,0-5.2-5.2Z" style="fill:#263238"></path><path d="M426.31,174.23a9.68,9.68,0,0,1-2.85,6.87l-14.68,14.68L395,182l-.94-.94a9.72,9.72,0,0,1,13.75-13.74l.94.94.93-.94a9.72,9.72,0,0,1,16.59,6.87Z" style="fill:#6446FF"></path><path d="M408.78,196.28h0a.54.54,0,0,1-.36-.14l-14.67-14.69A10.21,10.21,0,0,1,408.2,167l.59.58.57-.58a10.22,10.22,0,1,1,14.46,14.44l-14.69,14.69A.5.5,0,0,1,408.78,196.28ZM401,165a9.21,9.21,0,0,0-6.51,15.73l14.32,14.33,14.33-14.33a9.22,9.22,0,1,0-13-13l-.93.93a.47.47,0,0,1-.35.15h0a.49.49,0,0,1-.36-.15l-.93-.93A9.17,9.17,0,0,0,401,165Z" style="fill:#263238"></path></g><g id="freepik--Stars--inject-14"><path d="M472.64,233.59h-91a8,8,0,0,0-8,8v13.62a8,8,0,0,0,4.47,7.16l-17.8,17.38,29.08-16.56h83.21a8,8,0,0,0,8-8V241.57A8,8,0,0,0,472.64,233.59Z" style="fill:#6446FF"></path><path d="M360.35,280.23a.5.5,0,0,1-.35-.86l17.32-16.91a8.4,8.4,0,0,1-4.14-7.27V241.57a8.48,8.48,0,0,1,8.48-8.48h91a8.48,8.48,0,0,1,8.48,8.48v13.62a8.48,8.48,0,0,1-8.48,8.48H389.56l-29,16.49A.55.55,0,0,1,360.35,280.23Zm21.31-46.14a7.49,7.49,0,0,0-7.48,7.48v13.62a7.44,7.44,0,0,0,4.19,6.71.51.51,0,0,1,.28.37.52.52,0,0,1-.15.44l-15,14.66,25.7-14.64a.54.54,0,0,1,.25-.06h83.21a7.48,7.48,0,0,0,7.48-7.48V241.57a7.48,7.48,0,0,0-7.48-7.48Z" style="fill:#263238"></path><polygon points="387.61 242.37 389.1 246.96 393.93 246.96 390.02 249.8 391.51 254.39 387.61 251.55 383.7 254.39 385.19 249.8 381.29 246.96 386.11 246.96 387.61 242.37" style="fill:#fff"></polygon><path d="M391.51,254.89a.46.46,0,0,1-.29-.1l-3.61-2.62L384,254.79a.48.48,0,0,1-.58,0,.49.49,0,0,1-.19-.55L384.6,250,381,247.36a.49.49,0,0,1-.18-.55.5.5,0,0,1,.48-.35h4.46l1.38-4.25a.52.52,0,0,1,.95,0l1.38,4.25h4.47a.5.5,0,0,1,.47.35.49.49,0,0,1-.18.55L390.61,250l1.38,4.25a.5.5,0,0,1-.18.55A.47.47,0,0,1,391.51,254.89Zm-8.68-7.43,2.66,1.93a.52.52,0,0,1,.18.56l-1,3.13,2.66-1.93a.5.5,0,0,1,.59,0l2.66,1.93-1-3.13a.51.51,0,0,1,.19-.56l2.66-1.93H389.1a.5.5,0,0,1-.48-.35l-1-3.12-1,3.12a.5.5,0,0,1-.48.35Z" style="fill:#263238"></path><polygon points="407.38 242.37 408.87 246.96 413.7 246.96 409.79 249.8 411.28 254.39 407.38 251.55 403.47 254.39 404.96 249.8 401.06 246.96 405.89 246.96 407.38 242.37" style="fill:#fff"></polygon><path d="M403.47,254.89a.46.46,0,0,1-.29-.1.47.47,0,0,1-.18-.55l1.38-4.25-3.62-2.63a.5.5,0,0,1,.3-.9h4.46l1.38-4.25a.51.51,0,0,1,.48-.34h0a.49.49,0,0,1,.47.34l1.38,4.25h4.47a.48.48,0,0,1,.47.35.47.47,0,0,1-.18.55L410.38,250l1.38,4.25a.49.49,0,0,1-.18.55.5.5,0,0,1-.59,0l-3.61-2.62-3.61,2.62A.47.47,0,0,1,403.47,254.89Zm-.87-7.43,2.66,1.93a.51.51,0,0,1,.18.56l-1,3.13,2.67-1.93a.48.48,0,0,1,.58,0l2.66,1.93-1-3.13a.49.49,0,0,1,.18-.56l2.66-1.93h-3.29a.5.5,0,0,1-.48-.35l-1-3.12-1,3.12a.49.49,0,0,1-.47.35Z" style="fill:#263238"></path><polygon points="427.15 242.37 428.64 246.96 433.47 246.96 429.56 249.8 431.06 254.39 427.15 251.55 423.25 254.39 424.74 249.8 420.83 246.96 425.66 246.96 427.15 242.37" style="fill:#fff"></polygon><path d="M423.25,254.89a.47.47,0,0,1-.3-.1.49.49,0,0,1-.18-.55l1.38-4.25-3.61-2.63a.47.47,0,0,1-.18-.55.48.48,0,0,1,.47-.35h4.47l1.38-4.25a.49.49,0,0,1,.47-.34h0a.51.51,0,0,1,.48.34l1.38,4.25h4.46a.5.5,0,0,1,.48.35.49.49,0,0,1-.19.55L430.15,250l1.38,4.25a.47.47,0,0,1-.18.55.5.5,0,0,1-.59,0l-3.61-2.62-3.61,2.62A.46.46,0,0,1,423.25,254.89Zm-.88-7.43,2.66,1.93a.49.49,0,0,1,.18.56l-1,3.13,2.66-1.93a.49.49,0,0,1,.59,0l2.66,1.93-1-3.13a.51.51,0,0,1,.18-.56l2.66-1.93h-3.29a.49.49,0,0,1-.47-.35l-1-3.12-1,3.12a.48.48,0,0,1-.47.35Z" style="fill:#263238"></path><polygon points="446.92 242.37 448.42 246.96 453.24 246.96 449.34 249.8 450.83 254.39 446.92 251.55 443.02 254.39 444.51 249.8 440.6 246.96 445.43 246.96 446.92 242.37" style="fill:#fff"></polygon><path d="M450.83,254.89a.45.45,0,0,1-.29-.1l-3.62-2.62-3.61,2.62a.49.49,0,0,1-.59,0,.5.5,0,0,1-.18-.55l1.38-4.25-3.61-2.63a.47.47,0,0,1-.18-.55.5.5,0,0,1,.47-.35h4.47l1.38-4.25a.52.52,0,0,1,.95,0l1.38,4.25h4.46a.5.5,0,0,1,.48.35.49.49,0,0,1-.18.55L449.93,250l1.38,4.25a.49.49,0,0,1-.19.55A.45.45,0,0,1,450.83,254.89Zm-3.91-3.84a.47.47,0,0,1,.3.1l2.66,1.93-1-3.13a.52.52,0,0,1,.18-.56l2.67-1.93h-3.29a.5.5,0,0,1-.48-.35l-1-3.12-1,3.12a.5.5,0,0,1-.48.35h-3.29l2.66,1.93a.51.51,0,0,1,.19.56l-1,3.13,2.66-1.93A.46.46,0,0,1,446.92,251.05Z" style="fill:#263238"></path><polygon points="466.7 242.37 468.19 246.96 473.02 246.96 469.11 249.8 470.6 254.39 466.7 251.55 462.79 254.39 464.28 249.8 460.38 246.96 465.2 246.96 466.7 242.37" style="fill:#fff"></polygon><path d="M470.6,254.89a.46.46,0,0,1-.29-.1l-3.61-2.62-3.62,2.62a.48.48,0,0,1-.58,0,.49.49,0,0,1-.19-.55l1.38-4.25-3.61-2.63a.49.49,0,0,1-.18-.55.5.5,0,0,1,.48-.35h4.46l1.38-4.25a.52.52,0,0,1,.95,0l1.38,4.25H473a.5.5,0,0,1,.47.35.47.47,0,0,1-.18.55L469.7,250l1.38,4.25a.5.5,0,0,1-.18.55A.47.47,0,0,1,470.6,254.89Zm-3.9-3.84a.46.46,0,0,1,.29.1l2.66,1.93-1-3.13a.51.51,0,0,1,.19-.56l2.66-1.93h-3.29a.5.5,0,0,1-.48-.35l-1-3.12-1,3.12a.5.5,0,0,1-.48.35h-3.28l2.66,1.93a.52.52,0,0,1,.18.56l-1,3.13,2.66-1.93A.47.47,0,0,1,466.7,251.05Z" style="fill:#263238"></path></g><g id="freepik--Megaphone--inject-14"><path d="M406.55,104.83h0a8.09,8.09,0,0,1-9.78-6L391.59,77.6a8.08,8.08,0,0,1,6-9.77h0a8.09,8.09,0,0,1,9.78,6l5.18,21.27A8.1,8.1,0,0,1,406.55,104.83Z" style="fill:#fff"></path><path d="M404.63,105.56A8.62,8.62,0,0,1,396.28,99L391.1,77.72a8.59,8.59,0,0,1,16.7-4.06L413,94.94a8.6,8.6,0,0,1-6.32,10.38h0A8.86,8.86,0,0,1,404.63,105.56ZM399.45,68.1a7.88,7.88,0,0,0-1.79.21,7.61,7.61,0,0,0-5.59,9.18l5.18,21.27a7.61,7.61,0,0,0,9.18,5.59h0A7.6,7.6,0,0,0,412,95.17l-5.18-21.28A7.61,7.61,0,0,0,399.45,68.1Z" style="fill:#263238"></path><path d="M398.32,129.73h0a4.82,4.82,0,0,1-6.1-4.48l-2.14-26.76a7.05,7.05,0,0,1,5.15-7.21h0a4.81,4.81,0,0,1,6.1,4.47l2.14,26.76A7.07,7.07,0,0,1,398.32,129.73Z" style="fill:#fff"></path><path d="M397,130.39a5.22,5.22,0,0,1-3.07-1,5.48,5.48,0,0,1-2.21-4.12l-2.15-26.76a7.58,7.58,0,0,1,5.53-7.74,5.4,5.4,0,0,1,4.5.81,5.46,5.46,0,0,1,2.21,4.11L404,122.47a7.58,7.58,0,0,1-5.53,7.74A5.9,5.9,0,0,1,397,130.39Zm-.48-38.77a4.89,4.89,0,0,0-1.18.15,6.54,6.54,0,0,0-4.78,6.68l2.15,26.76a4.57,4.57,0,0,0,1.8,3.39,4.41,4.41,0,0,0,3.68.64h0a6.57,6.57,0,0,0,4.78-6.69l-2.15-26.76a4.56,4.56,0,0,0-1.8-3.38A4.22,4.22,0,0,0,396.53,91.62Z" style="fill:#263238"></path><path d="M455.52,100.12l-27-5.62a110.28,110.28,0,0,0-28.27,3.1L382,102a7.47,7.47,0,0,1-9-5.5l-3.81-15.66a7.48,7.48,0,0,1,5.49-9l14.7-3.57a110.19,110.19,0,0,0,31.56-13.16l19.2-18.2Z" style="fill:#fff"></path><path d="M380.26,102.73a8,8,0,0,1-7.76-6.09L368.69,81a8,8,0,0,1,5.87-9.64l14.7-3.58a109.19,109.19,0,0,0,31.36-13.07l19.17-18.16a.47.47,0,0,1,.48-.12.5.5,0,0,1,.34.36L456,100a.5.5,0,0,1-.13.47.49.49,0,0,1-.46.14L428.37,95a109.54,109.54,0,0,0-28.06,3.09l-18.17,4.43A8.11,8.11,0,0,1,380.26,102.73Zm59.59-64.89L421.27,55.45a.16.16,0,0,1-.08.06,109.93,109.93,0,0,1-31.7,13.22l-14.7,3.58a7,7,0,0,0-5.13,8.43l3.81,15.66a7,7,0,0,0,8.44,5.13l18.17-4.42A110.45,110.45,0,0,1,428.48,94l26.37,5.47Z" style="fill:#263238"></path><path d="M399.55,65.22c-3.34,1.16-6.73,2.19-10.18,3l-14.7,3.57a7.48,7.48,0,0,0-5.49,9L373,96.52a7.47,7.47,0,0,0,9,5.5L400.2,97.6q3.42-.84,6.88-1.45Z" style="fill:#263238"></path><path d="M380.26,102.73a8,8,0,0,1-7.76-6.09L368.69,81a8,8,0,0,1,5.87-9.64l14.7-3.58c3.27-.8,6.67-1.81,10.12-3a.49.49,0,0,1,.41,0,.54.54,0,0,1,.25.32L407.56,96a.49.49,0,0,1-.06.39.57.57,0,0,1-.33.22c-2.31.41-4.62.89-6.86,1.43l-18.17,4.43A8.11,8.11,0,0,1,380.26,102.73Zm18.93-36.86c-3.3,1.14-6.56,2.1-9.7,2.86l-14.7,3.58a7,7,0,0,0-5.13,8.43l3.81,15.66a7,7,0,0,0,8.44,5.13l18.17-4.42c2.09-.51,4.23-1,6.39-1.35Z" style="fill:#263238"></path><rect x="442.66" y="30.18" width="13.16" height="78.97" rx="4.73" transform="translate(-3.73 108.21) rotate(-13.68)" style="fill:#6446FF"></rect><path d="M455.66,109.11a5.24,5.24,0,0,1-5.08-4L434.14,37.57A5.22,5.22,0,0,1,438,31.25l3.6-.87a5.24,5.24,0,0,1,6.32,3.84l16.44,67.54a5.24,5.24,0,0,1-3.85,6.32l-3.59.88A5.32,5.32,0,0,1,455.66,109.11ZM442.82,31.23a4.27,4.27,0,0,0-1,.12l-3.6.87a4.22,4.22,0,0,0-3.11,5.11l16.44,67.55a4.24,4.24,0,0,0,5.11,3.11l3.6-.88.12.49-.12-.49a4.24,4.24,0,0,0,3.11-5.11L446.93,34.46A4.24,4.24,0,0,0,442.82,31.23Z" style="fill:#263238"></path><path d="M462.87,53.24a1,1,0,0,1-.54-.16A1,1,0,0,1,462,51.7l6.35-10a1,1,0,0,1,1.38-.31,1,1,0,0,1,.31,1.38l-6.35,10A1,1,0,0,1,462.87,53.24Z" style="fill:#263238"></path><path d="M479.43,85.22a1,1,0,0,1-.5-.14l-10.24-6a1,1,0,0,1,1-1.72l10.24,6a1,1,0,0,1-.51,1.87Z" style="fill:#263238"></path><path d="M468.26,66.35a1,1,0,0,1-1-.76,1,1,0,0,1,.74-1.21l12.43-3a1,1,0,0,1,.48,1.95l-12.44,3Z" style="fill:#263238"></path><path d="M403.33,119.41l4.36,3.72a3.25,3.25,0,0,1,1,1.69h0a3.22,3.22,0,0,1-2.37,3.89l-13.75,3.35-.86-12.56Z" style="fill:#263238"></path><path d="M392.61,132.56a.51.51,0,0,1-.29-.1.54.54,0,0,1-.21-.37l-.86-12.56a.47.47,0,0,1,.14-.37.45.45,0,0,1,.36-.16l11.58-.09h0a.5.5,0,0,1,.33.12l4.35,3.72a3.63,3.63,0,0,1,1.2,2,3.73,3.73,0,0,1-2.74,4.5l-13.74,3.34ZM392.29,120l.78,11.44,13.17-3.21a2.71,2.71,0,0,0,1.12-4.71l-4.21-3.6Z" style="fill:#263238"></path><path d="M381.13,81.7a1.9,1.9,0,1,0-1.4,2.29A1.91,1.91,0,0,0,381.13,81.7Z" style="fill:#6446FF"></path></g><g id="freepik--Character--inject-14"><path d="M73.15,458.64s-.36,4.66.91,6,12.53,1.9,13.8.17.55-8.11.55-8.11S83.87,458.29,73.15,458.64Z" style="fill:#6446FF"></path><path d="M82,466.44c-3.34,0-7.44-.46-8.33-1.42-1.38-1.5-1.08-5.92-1-6.42a.51.51,0,0,1,.49-.46c10.48-.34,15.06-1.86,15.11-1.87a.48.48,0,0,1,.42.05.46.46,0,0,1,.23.36c.08.68.71,6.64-.64,8.47-.19.26-.76,1-4.55,1.25C83.19,466.43,82.62,466.44,82,466.44Zm-8.4-7.32c-.07,1.47,0,4.32.81,5.22.6.65,5.19,1.29,9.23,1.06,2.44-.13,3.57-.54,3.8-.85.85-1.15.69-5.12.51-7.16C86.45,457.81,82,458.82,73.62,459.12Z" style="fill:#263238"></path><path d="M84.59,464c-6.13.16-9.4-.24-11.17-.71a3.14,3.14,0,0,0,.64,1.4c1.27,1.38,12.53,1.9,13.8.17a3.1,3.1,0,0,0,.43-1C87.15,463.9,85.94,464,84.59,464Z" style="fill:#fff"></path><path d="M82,466.44c-3.34,0-7.44-.46-8.33-1.42a3.65,3.65,0,0,1-.76-1.62.5.5,0,0,1,.61-.6c2.23.59,5.94.82,11,.69h0c1.34,0,2.55-.08,3.69-.14a.46.46,0,0,1,.41.19.5.5,0,0,1,.09.44,3.28,3.28,0,0,1-.51,1.17c-.19.26-.76,1-4.55,1.25C83.18,466.43,82.61,466.44,82,466.44ZM74.18,464a1.83,1.83,0,0,0,.25.37c.6.65,5.18,1.29,9.22,1.06,2.45-.13,3.58-.54,3.81-.85a.55.55,0,0,0,.1-.17l-3,.11h0A51.58,51.58,0,0,1,74.18,464Zm10.41,0h0Z" style="fill:#263238"></path><path d="M106.57,464.49a28.32,28.32,0,0,0,9.65,5.55c5.27,1.55,6.72,2.41,6.17,4.14s-5.08,2.24-16,2.59-19.09-1.06-20.55-2.1-.54-2.93,0-3.45S104.57,463.11,106.57,464.49Z" style="fill:#6446FF"></path><path d="M103.08,477.32c-9.28,0-16.1-1.24-17.51-2.24a2.3,2.3,0,0,1-1-1.74,3.42,3.42,0,0,1,.93-2.48c.13-.13,18.78-8.54,21.33-6.78l.06,0a28,28,0,0,0,9.45,5.44c4.28,1.26,5.84,2,6.42,3.1a2.08,2.08,0,0,1,.09,1.67c-.6,1.92-4.14,2.55-16.44,2.94C105.28,477.3,104.17,477.32,103.08,477.32Zm2.63-12.53c-3.35,0-18,5.76-19.53,6.81a2.51,2.51,0,0,0-.6,1.67,1.27,1.27,0,0,0,.57,1c1.28.91,9.14,2.36,20.25,2,7.88-.25,15-.61,15.52-2.24a1.11,1.11,0,0,0,0-.9c-.47-.88-2.67-1.68-5.82-2.61a28.69,28.69,0,0,1-9.82-5.63A1.1,1.1,0,0,0,105.71,464.79Z" style="fill:#263238"></path><path d="M122.39,474.18a1.52,1.52,0,0,0-.25-1.57c-2.53,1-7.07,1.35-17.55,1.22-9.2-.1-14.83-1.46-19.42-1.27a1.88,1.88,0,0,0,.69,2.11c1.46,1,9.65,2.44,20.55,2.1S121.85,475.9,122.39,474.18Z" style="fill:#fff"></path><path d="M103.08,477.32c-9.28,0-16.1-1.24-17.51-2.24a2.37,2.37,0,0,1-.89-2.64.49.49,0,0,1,.47-.38,53.42,53.42,0,0,1,7.47.47c3.17.33,7.11.75,12,.8,10.38.13,14.92-.19,17.35-1.18a.52.52,0,0,1,.58.14,2,2,0,0,1,.34,2h0c-.6,1.92-4.14,2.55-16.44,2.94C105.28,477.3,104.17,477.32,103.08,477.32ZM85.59,473a1.3,1.3,0,0,0,.56,1.22c1.28.91,9.13,2.36,20.25,2,7.88-.25,15-.61,15.52-2.24a1.16,1.16,0,0,0,0-.8c-2.67.94-7.21,1.22-17.35,1.1a119.35,119.35,0,0,1-12.08-.81A57.55,57.55,0,0,0,85.59,473Zm36.8,1.14h0Z" style="fill:#263238"></path><path d="M84.23,363.74s-.36,20.7-4.36,38.48-6.54,26-7.26,37.27a135.44,135.44,0,0,0,.18,20.18s2,1,6.9.69a16.2,16.2,0,0,0,7.63-2.24s.54-19.32.54-30,4.72-40,5.09-50.9S90,360.81,87.68,359.08,84.23,363.74,84.23,363.74Z" style="fill:#263238"></path><path d="M77.76,460.93c-3.58,0-5.13-.77-5.2-.81a.52.52,0,0,1-.27-.4,138.07,138.07,0,0,1-.18-20.27c.55-8.59,2.2-15.57,4.68-26.14.78-3.31,1.65-7,2.59-11.2,3.94-17.52,4.35-38.17,4.35-38.38a.22.22,0,0,1,0-.08c.08-.46.82-4.54,2.58-5.25a1.65,1.65,0,0,1,1.66.28c2.74,2,5.82,8.06,5.47,18.53-.17,5.05-1.26,13.91-2.41,23.29-1.31,10.76-2.68,21.88-2.68,27.6,0,10.58-.54,29.84-.54,30a.53.53,0,0,1-.22.4,16.55,16.55,0,0,1-7.88,2.33C79,460.91,78.36,460.93,77.76,460.93Zm-4.5-1.6a16.18,16.18,0,0,0,6.39.54,16.8,16.8,0,0,0,7.18-2c.06-2.37.53-19.85.53-29.74,0-5.78,1.37-16.93,2.69-27.72,1.15-9.36,2.23-18.2,2.4-23.2.33-10.08-2.52-15.84-5.06-17.7a.7.7,0,0,0-.7-.16c-.88.36-1.67,2.82-2,4.47,0,1-.49,21.28-4.37,38.54-1,4.21-1.82,7.9-2.6,11.21-2.47,10.52-4.1,17.46-4.65,26A137,137,0,0,0,73.26,459.33Z" style="fill:#263238"></path><path d="M108.2,339.58s-.18,10.35-.18,23.47-2.9,43.83-5.26,58.49-.73,34.67-.37,36.22,1.09,1,2.36,2.59a32.64,32.64,0,0,1,2.73,4.31s-7.09,4.83-12.53,6.56-7.45,2.41-8.72,2.41-1.27-1.2-2.18-4.14-.91-15.18-.91-15.18S80.6,436.9,80.6,426.2s4.9-17.25,4.9-27.61-3.09-38.3-4.9-42.44-5.27-9.84-5.63-12.77-.55-4.83-.55-4.83Z" style="fill:#263238"></path><path d="M86.23,474.13c-1.39,0-1.69-1.08-2.19-2.88-.13-.46-.28-1-.47-1.61-.92-3-.93-14.83-.93-15.33,0-.1-2.54-17.5-2.54-28.11,0-5.46,1.27-9.89,2.5-14.18s2.4-8.36,2.4-13.43c0-9.92-3-38.12-4.86-42.24-.6-1.37-1.4-3-2.18-4.49-1.59-3.13-3.24-6.38-3.49-8.42-.36-2.91-.54-4.83-.55-4.85a.49.49,0,0,1,.14-.38.46.46,0,0,1,.38-.16l33.78,1a.5.5,0,0,1,.48.51c0,.1-.18,10.5-.18,23.46,0,13.29-3,44.27-5.27,58.57-2.34,14.54-.72,34.56-.37,36a1.39,1.39,0,0,0,.8,1.1,5.63,5.63,0,0,1,1.46,1.28,32.21,32.21,0,0,1,2.78,4.4.51.51,0,0,1-.16.65c-.29.19-7.21,4.89-12.66,6.62l-1.82.57C89.14,473.59,87.42,474.13,86.23,474.13ZM75,339.06c.08.77.24,2.29.48,4.26s1.84,5,3.39,8.09c.78,1.54,1.59,3.14,2.21,4.54C83,360.26,86,388.34,86,398.59c0,5.21-1.24,9.53-2.44,13.71s-2.46,8.58-2.46,13.9c0,10.54,2.51,27.86,2.53,28s0,12.28.9,15.11c.19.62.34,1.16.47,1.63.51,1.83.65,2.15,1.23,2.15,1,0,2.71-.53,6.75-1.81l1.81-.58c4.61-1.46,10.5-5.23,12-6.24a29.81,29.81,0,0,0-2.45-3.83,4.66,4.66,0,0,0-1.23-1.08,2.36,2.36,0,0,1-1.24-1.71c-.34-1.5-2-21.75.36-36.42,2.3-14.27,5.26-45.16,5.26-58.41,0-11.37.14-20.77.18-23Z" style="fill:#263238"></path><path d="M85.32,248.48s-7.26,12.08-9.81,22.43-4.9,30.88-5.63,42.62-2.36,28-2.36,28a81.61,81.61,0,0,0,22.16,2.59A132.14,132.14,0,0,0,114,341.31s-4-33.82-7.81-53.49-7.45-32.1-7.45-32.1S89,247.79,85.32,248.48Z" style="fill:#6446FF"></path><path d="M88.53,344.58A82,82,0,0,1,67.38,342a.51.51,0,0,1-.36-.53c0-.16,1.65-16.34,2.36-27.93.69-11.06,3-32.06,5.65-42.71,2.53-10.31,9.79-22.45,9.86-22.57a.48.48,0,0,1,.34-.23c3.75-.71,12.82,6.52,13.84,7.35a.51.51,0,0,1,.17.24c0,.13,3.68,12.68,7.46,32.14s7.77,53.19,7.81,53.53a.49.49,0,0,1-.38.54,133.28,133.28,0,0,1-24.44,2.78Zm-20.47-3.47a84.14,84.14,0,0,0,21.61,2.46,134.32,134.32,0,0,0,23.79-2.65c-.49-4.09-4.22-34.81-7.75-53s-7-30.42-7.39-31.9c-2.71-2.17-9.81-7.29-12.69-7.07-1,1.63-7.32,12.66-9.63,22.09-2.6,10.6-4.94,31.51-5.62,42.53C69.73,324.12,68.32,338.49,68.06,341.11Z" style="fill:#263238"></path><path d="M90,225.87a20.92,20.92,0,0,1,.18,10c-1.27,5.35-2,9.15-2,9.15s10.53,11.21,10.53,10.69.36-6.38,2-10,2.72-5.7,2.72-5.7a14.06,14.06,0,0,1-5.63-6.38c-2-4.49-2.18-11.56-4.9-11.73S90,225.87,90,225.87Z" style="fill:#fff"></path><path d="M98.79,256.24c-.44,0-1.69-1-10.93-10.87a.51.51,0,0,1-.13-.44s.75-3.87,2-9.16a20.48,20.48,0,0,0-.18-9.75.88.88,0,0,1,0-.17c0-.1.13-2.56,1.48-3.78a2.58,2.58,0,0,1,2-.66c2.09.13,2.83,3.13,3.68,6.6a32.85,32.85,0,0,0,1.65,5.43,13.7,13.7,0,0,0,5.4,6.14.51.51,0,0,1,.25.29.48.48,0,0,1,0,.39s-1.1,2.1-2.71,5.66-1.95,9.12-1.95,9.8a.53.53,0,0,1-.33.49A.49.49,0,0,1,98.79,256.24Zm-10-11.37c3.11,3.31,7.8,8.23,9.54,9.88a31.92,31.92,0,0,1,2-9.24c1.2-2.66,2.12-4.51,2.52-5.3a14.7,14.7,0,0,1-5.43-6.37,33.75,33.75,0,0,1-1.7-5.59c-.73-3-1.41-5.76-2.77-5.85a1.68,1.68,0,0,0-1.23.41,5.07,5.07,0,0,0-1.14,3A21.31,21.31,0,0,1,90.71,236C89.64,240.5,89,243.94,88.77,244.87Z" style="fill:#263238"></path><path d="M94.76,239.77a11.59,11.59,0,0,0,.91,5.45,48.7,48.7,0,0,0,3,5.29l2.88-8.17Z" style="fill:#263238"></path><path d="M98.69,251a.49.49,0,0,1-.41-.22,47.63,47.63,0,0,1-3.07-5.36,12.06,12.06,0,0,1-.95-5.71.49.49,0,0,1,.24-.38.52.52,0,0,1,.44,0l6.81,2.57a.51.51,0,0,1,.29.64l-2.87,8.17a.51.51,0,0,1-.41.33Zm-3.46-10.53a10.73,10.73,0,0,0,.89,4.52,42.83,42.83,0,0,0,2.44,4.38l2.38-6.74Z" style="fill:#263238"></path><path d="M114.81,214.13s0,10.18.73,12.42,3.26,2.76,2.9,4-3.81,1.9-3.81,1.9-.91,8.62-1.64,11-2.54,2.93-6.54,2.59-8.53-1.56-10.35-4.14-2.9-7.25-2.9-7.25a114.17,114.17,0,0,1-.91-12.42c0-5.53-.73-8.46,6.9-11.39S114.45,211.71,114.81,214.13Z" style="fill:#fff"></path><path d="M108.41,246.64c-.62,0-1.28,0-2-.1-2.45-.21-8.41-1.06-10.72-4.35-1.85-2.63-2.93-7.22-3-7.42a114.47,114.47,0,0,1-.92-12.54c0-.45,0-.89,0-1.31,0-4.65-.09-7.73,7.23-10.54a16.49,16.49,0,0,1,13.73.85c1.51.88,2.42,1.88,2.56,2.82a.22.22,0,0,1,0,.08c0,3.49.15,10.55.7,12.26a4.81,4.81,0,0,0,1.75,2.18c.7.58,1.43,1.18,1.16,2.09-.37,1.24-2.8,1.93-3.83,2.17a101.2,101.2,0,0,1-1.62,10.77C112.76,246,111.06,246.64,108.41,246.64Zm-14.72-12s1.08,4.55,2.82,7c1.44,2,5.17,3.51,10,3.93,3.94.34,5.4-.2,6-2.24.71-2.34,1.61-10.86,1.62-10.95a.49.49,0,0,1,.4-.43c1.52-.31,3.26-1,3.43-1.56.08-.24-.21-.51-.84-1a5.68,5.68,0,0,1-2.06-2.64c-.73-2.24-.75-11.72-.75-12.53-.09-.48-.68-1.27-2.07-2.07a15.42,15.42,0,0,0-12.87-.79c-6.67,2.57-6.64,4.92-6.59,9.6,0,.42,0,.86,0,1.32a114.9,114.9,0,0,0,.9,12.36Z" style="fill:#263238"></path><path d="M111.9,227.15c0,1-.28,1.81-.63,1.81s-.64-.81-.64-1.81.29-1.81.64-1.81S111.9,226.15,111.9,227.15Z" style="fill:#263238"></path><path d="M108.09,223.94a.34.34,0,0,1-.14,0,.49.49,0,0,1-.34-.61c.35-1.27,1.66-3.62,4.14-3.47a.5.5,0,0,1,.47.53.53.53,0,0,1-.53.47c-2.27-.16-3.09,2.62-3.12,2.74A.49.49,0,0,1,108.09,223.94Z" style="fill:#263238"></path><path d="M112.27,235.55c-3.72,0-4.23-2-4.25-2.12a.51.51,0,0,1,.38-.6.5.5,0,0,1,.59.37c0,.08.46,1.45,3.66,1.34a.52.52,0,0,1,.52.48.5.5,0,0,1-.48.52Z" style="fill:#263238"></path><path d="M95.19,231.21l3.82-1s-2.18-3.28.18-4.83,5.81-2.76,4.9-4.31-6.9-2.42-4-4.32,6.9-2.93,7.63-2.24,0,1.55,4.72,1.55,7.26-1.72,5.81-7.24-9.26-7.6-14.17-5.7-6.35,3.28-6.35,3.28-10.36.35-13.44,7.59-1.82,11.74.36,14.15,5.45,5,6.72,5S95.19,231.21,95.19,231.21Z" style="fill:#263238"></path><path d="M91.38,233.61c-1.66,0-5.21-3.09-7.09-5.17-1.7-1.89-4-6.3-.45-14.68,3-7,12.25-7.81,13.7-7.89a24.26,24.26,0,0,1,6.37-3.25,13.09,13.09,0,0,1,10.23.7,8.42,8.42,0,0,1,4.6,5.33c.7,2.64.54,4.57-.47,5.89s-2.94,2-5.82,2c-3.75,0-4.35-.53-4.83-1.35a1.47,1.47,0,0,0-.24-.34c-.45-.34-4,.34-7,2.3-.45.3-.57.51-.56.58,0,.37,1.32,1,2.1,1.33a6.09,6.09,0,0,1,2.62,1.73,1.45,1.45,0,0,1,.16,1.14c-.29,1.05-1.69,1.83-3.32,2.73-.65.36-1.32.73-1.91,1.12a1.81,1.81,0,0,0-.82,1.18,4.71,4.71,0,0,0,.78,3,.48.48,0,0,1-.28.75l-3.72,1C94.91,232,92.69,233.61,91.38,233.61ZM108,202.9a10.48,10.48,0,0,0-3.77.65c-4.7,1.82-6.18,3.16-6.19,3.18a.51.51,0,0,1-.33.13c-.1,0-10.07.42-13,7.29-3.36,7.87-1.27,11.91.27,13.62,2.2,2.44,5.35,4.84,6.35,4.84.8,0,2.58-1.11,3.52-1.8a.35.35,0,0,1,.16-.08l3.2-.87a5.07,5.07,0,0,1-.6-3.12,2.77,2.77,0,0,1,1.25-1.82c.62-.4,1.31-.78,2-1.15,1.25-.7,2.67-1.48,2.85-2.12a.47.47,0,0,0-.07-.37,6.12,6.12,0,0,0-2.18-1.33c-1.33-.62-2.6-1.21-2.67-2.17,0-.79.75-1.31,1-1.49,2.76-1.8,7.19-3.19,8.25-2.18a2.22,2.22,0,0,1,.41.55c.24.4.51.86,4,.86,2.55,0,4.2-.52,5-1.59s.91-2.7.3-5a7.61,7.61,0,0,0-4.1-4.69A12.53,12.53,0,0,0,108,202.9Z" style="fill:#263238"></path><path d="M96.83,233.28c0-.52-1.45-7.77-4.18-7.77s-4.18,1.9-3.09,6.22,4.36,5.69,6.91,3.45" style="fill:#fff"></path><path d="M93.91,236.74a3.9,3.9,0,0,1-1.12-.17c-1.74-.54-3.09-2.26-3.71-4.72s-.48-4.33.44-5.51A3.78,3.78,0,0,1,92.65,225c3.24,0,4.68,7.75,4.68,8.27a.5.5,0,0,1-.5.5.5.5,0,0,1-.5-.5c0-1-1.57-7.27-3.68-7.27a2.79,2.79,0,0,0-2.34.94c-.71.91-.8,2.52-.26,4.65s1.64,3.58,3,4a3.12,3.12,0,0,0,3-.81.5.5,0,0,1,.67.75A4.35,4.35,0,0,1,93.91,236.74Z" style="fill:#263238"></path><polygon points="86.05 240.89 100.39 253.65 101.85 261.76 82.41 248.82 86.05 240.89" style="fill:#6446FF"></polygon><path d="M101.85,262.26a.46.46,0,0,1-.28-.08L82.14,249.24a.5.5,0,0,1-.18-.63l3.63-7.93a.49.49,0,0,1,.35-.28.5.5,0,0,1,.44.11l14.35,12.77a.56.56,0,0,1,.16.29l1.45,8.11a.5.5,0,0,1-.22.5A.45.45,0,0,1,101.85,262.26Zm-18.8-13.62,18.1,12.06-1.22-6.79-13.71-12.2Z" style="fill:#263238"></path><path d="M67.41,380a2.11,2.11,0,0,1-2.14-1.89l-1.4-16.92a5.1,5.1,0,0,1,4.81-5.37l28.73-2.27a5.22,5.22,0,0,1,5.68,4.5l1.71,17.12a2.09,2.09,0,0,1-2,2.23,2.14,2.14,0,0,1-2.35-1.84l-1.71-17.12a.91.91,0,0,0-1-.81L69,359.85a.92.92,0,0,0-.87,1l1.4,16.92a2.09,2.09,0,0,1-2,2.2Z" style="fill:#263238"></path><path d="M67.41,380.45a2.62,2.62,0,0,1-2.64-2.35l-1.4-16.92a5.33,5.33,0,0,1,1.28-3.89,5.81,5.81,0,0,1,4-2L97.37,353a5.72,5.72,0,0,1,6.22,5l1.7,17.11a2.45,2.45,0,0,1-.56,1.83,2.7,2.7,0,0,1-1.83,1,2.62,2.62,0,0,1-2.89-2.3L98.3,358.44a.43.43,0,0,0-.15-.27.41.41,0,0,0-.32-.09l-28.75,2.27a.47.47,0,0,0-.32.16.34.34,0,0,0-.09.27l1.39,16.92a2.41,2.41,0,0,1-.59,1.81,2.62,2.62,0,0,1-1.85.93ZM97.82,354l-.37,0-28.73,2.27a4.78,4.78,0,0,0-3.31,1.67,4.3,4.3,0,0,0-1,3.16L65.76,378a1.6,1.6,0,0,0,1.77,1.42,1.69,1.69,0,0,0,1.18-.57,1.52,1.52,0,0,0,.36-1.09l-1.4-16.92a1.37,1.37,0,0,1,.33-1,1.47,1.47,0,0,1,1-.5l28.73-2.28a1.42,1.42,0,0,1,1,.31,1.38,1.38,0,0,1,.52.95L101,375.46a1.64,1.64,0,0,0,1.81,1.39,1.66,1.66,0,0,0,1.15-.59,1.46,1.46,0,0,0,.34-1.09l-1.71-17.12A4.7,4.7,0,0,0,97.82,354Z" style="fill:#fff"></path><path d="M52,378.22l3.86,27.86a3.81,3.81,0,0,0,4.06,3.28L115.13,405a3.81,3.81,0,0,0,3.5-3.81v-28.8l-33,6.76Z" style="fill:#6446FF"></path><path d="M59.6,409.87a4.3,4.3,0,0,1-4.25-3.72l-3.87-27.86a.5.5,0,0,1,.13-.4.46.46,0,0,1,.38-.17l33.54.92,33-6.75a.53.53,0,0,1,.42.1.53.53,0,0,1,.18.39v28.8a4.32,4.32,0,0,1-4,4.3l-55.23,4.38Zm-7.05-31.13L56.34,406a3.31,3.31,0,0,0,3.52,2.85l55.23-4.37a3.33,3.33,0,0,0,3-3.31V373l-32.45,6.64h-.12Z" style="fill:#263238"></path><path d="M63.57,406l-.75.06a.79.79,0,0,1-.86-.7l-1.7-20.67a.77.77,0,0,1,.74-.82l.75-.06a.79.79,0,0,1,.86.7l1.7,20.67A.77.77,0,0,1,63.57,406Z" style="fill:#fff"></path><path d="M62.76,406.58a1.29,1.29,0,0,1-1.3-1.16l-1.7-20.67a1.26,1.26,0,0,1,.29-.91,1.35,1.35,0,0,1,.91-.45l.75-.06a1.31,1.31,0,0,1,1.4,1.16l1.7,20.67a1.23,1.23,0,0,1-.3.91,1.29,1.29,0,0,1-.9.45l-.75.06Zm-.95-22.25h0l-.75.06a.32.32,0,0,0-.22.1.24.24,0,0,0-.05.18l1.7,20.67a.29.29,0,0,0,.32.24l.76-.06h0a.28.28,0,0,0,.21-.1.24.24,0,0,0,.06-.18l-1.7-20.66A.29.29,0,0,0,61.81,384.33Z" style="fill:#263238"></path><path d="M70.27,405.53l-.75.05a.79.79,0,0,1-.86-.7L67,384.21a.77.77,0,0,1,.74-.82l.75-.06a.8.8,0,0,1,.86.71L71,404.7A.79.79,0,0,1,70.27,405.53Z" style="fill:#fff"></path><path d="M69.46,406.08a1.29,1.29,0,0,1-1.3-1.16l-1.7-20.67a1.23,1.23,0,0,1,.3-.91,1.31,1.31,0,0,1,.9-.45l.75-.05a1.29,1.29,0,0,1,1.4,1.16l1.7,20.66a1.22,1.22,0,0,1-.3.91,1.25,1.25,0,0,1-.9.45h0l-.75.06Zm.81-.55h0Zm-1.76-21.7h0l-.75.06a.31.31,0,0,0-.22.11.2.2,0,0,0-.05.17l1.7,20.67a.28.28,0,0,0,.32.24l.75-.05a.33.33,0,0,0,.22-.11.23.23,0,0,0,.06-.18l-1.7-20.66A.29.29,0,0,0,68.51,383.83Z" style="fill:#263238"></path><path d="M77,405l-.75.05a.78.78,0,0,1-.86-.7l-1.7-20.67a.77.77,0,0,1,.74-.82l.75-.05a.78.78,0,0,1,.86.7l1.7,20.67A.78.78,0,0,1,77,405Z" style="fill:#fff"></path><path d="M76.16,405.59a1.3,1.3,0,0,1-1.3-1.17l-1.7-20.67a1.23,1.23,0,0,1,.29-.9,1.32,1.32,0,0,1,.91-.46l.75-.05a1.3,1.3,0,0,1,1.4,1.16l1.7,20.67a1.19,1.19,0,0,1-.3.9,1.3,1.3,0,0,1-.9.46h0l-.75.05ZM77,405h0Zm-1.76-21.7h0l-.75.05a.36.36,0,0,0-.22.11.24.24,0,0,0-.06.17l1.7,20.67a.29.29,0,0,0,.33.24l.75-.05a.3.3,0,0,0,.22-.11.21.21,0,0,0,.06-.17l-1.7-20.67A.29.29,0,0,0,75.21,383.33Z" style="fill:#263238"></path><path d="M83.67,404.53l-.75.06a.79.79,0,0,1-.86-.71l-1.7-20.66a.77.77,0,0,1,.73-.82l.76-.06a.79.79,0,0,1,.86.7l1.7,20.67A.78.78,0,0,1,83.67,404.53Z" style="fill:#fff"></path><path d="M82.86,405.09a1.28,1.28,0,0,1-1.3-1.16l-1.7-20.67a1.26,1.26,0,0,1,1.2-1.36l.75-.06a1.3,1.3,0,0,1,1.4,1.16l1.7,20.67a1.27,1.27,0,0,1-.3.91,1.35,1.35,0,0,1-.9.45l-.75.05Zm-1-22.25h0l-.75.05a.36.36,0,0,0-.22.11.3.3,0,0,0-.06.18l1.7,20.66a.3.3,0,0,0,.33.25l.75-.06h0a.29.29,0,0,0,.22-.1.24.24,0,0,0,.06-.18l-1.7-20.67A.28.28,0,0,0,81.91,382.84Z" style="fill:#263238"></path><path d="M90.37,404l-.75.06a.79.79,0,0,1-.86-.7l-1.7-20.67a.77.77,0,0,1,.73-.82l.76-.06a.79.79,0,0,1,.86.7l1.7,20.67A.78.78,0,0,1,90.37,404Z" style="fill:#fff"></path><path d="M89.56,404.59a1.28,1.28,0,0,1-1.3-1.16l-1.7-20.67a1.22,1.22,0,0,1,.29-.91,1.35,1.35,0,0,1,.91-.45l.75-.06a1.31,1.31,0,0,1,1.4,1.16l1.7,20.67a1.27,1.27,0,0,1-.3.91,1.31,1.31,0,0,1-.9.45l-.75.06Zm-1-22.25h0l-.75.06a.3.3,0,0,0-.22.1.3.3,0,0,0-.06.18l1.7,20.67a.3.3,0,0,0,.33.24l.75-.06h0a.29.29,0,0,0,.22-.1.24.24,0,0,0,.06-.18l-1.7-20.66A.29.29,0,0,0,88.61,382.34Z" style="fill:#263238"></path><path d="M97.07,403.54l-.75,0a.8.8,0,0,1-.87-.7l-1.7-20.67a.78.78,0,0,1,.74-.82l.75,0a.79.79,0,0,1,.87.7l1.7,20.67A.79.79,0,0,1,97.07,403.54Z" style="fill:#fff"></path><path d="M96.26,404.09a1.28,1.28,0,0,1-1.3-1.16l-1.7-20.67a1.18,1.18,0,0,1,.29-.9,1.32,1.32,0,0,1,.91-.46l.75,0a1.3,1.3,0,0,1,1.4,1.16l1.7,20.66a1.26,1.26,0,0,1-.3.91,1.32,1.32,0,0,1-.9.46h0l-.75,0Zm.81-.55h0Zm-1.76-21.7h0l-.75.06a.3.3,0,0,0-.22.11.24.24,0,0,0-.06.17L96,402.85a.29.29,0,0,0,.33.24l.75,0a.33.33,0,0,0,.22-.11.22.22,0,0,0,.06-.18l-1.7-20.66A.29.29,0,0,0,95.31,381.84Z" style="fill:#263238"></path><path d="M103.77,403l-.75,0a.8.8,0,0,1-.87-.7l-1.7-20.67a.79.79,0,0,1,.74-.82l.75,0a.8.8,0,0,1,.87.7l1.7,20.67A.78.78,0,0,1,103.77,403Z" style="fill:#fff"></path><path d="M103,403.6a1.29,1.29,0,0,1-1.3-1.17L100,381.77a1.21,1.21,0,0,1,.29-.91,1.32,1.32,0,0,1,.91-.46l.75,0a1.3,1.3,0,0,1,1.4,1.16l1.7,20.67a1.23,1.23,0,0,1-.3.9,1.32,1.32,0,0,1-.9.46h0l-.75,0Zm.81-.56h0ZM102,381.35h0l-.75,0a.33.33,0,0,0-.22.11.24.24,0,0,0-.06.17l1.7,20.67a.3.3,0,0,0,.33.25l.75-.06a.3.3,0,0,0,.22-.11.21.21,0,0,0,.06-.17l-1.7-20.67A.29.29,0,0,0,102,381.35Z" style="fill:#263238"></path><path d="M110.47,402.54l-.75.06a.8.8,0,0,1-.87-.7l-1.7-20.67a.78.78,0,0,1,.74-.82l.75-.06a.8.8,0,0,1,.87.7l1.7,20.67A.78.78,0,0,1,110.47,402.54Z" style="fill:#fff"></path><path d="M109.65,403.1a1.28,1.28,0,0,1-1.29-1.16l-1.71-20.67a1.27,1.27,0,0,1,.3-.91,1.31,1.31,0,0,1,.91-.45l.75-.06A1.3,1.3,0,0,1,110,381l1.7,20.67a1.27,1.27,0,0,1-.3.91,1.35,1.35,0,0,1-.9.45l-.75.06Zm-.94-22.25h0l-.75.06a.29.29,0,0,0-.22.1.3.3,0,0,0-.06.18l1.7,20.66a.29.29,0,0,0,.33.25l.75-.06h0a.29.29,0,0,0,.22-.1.24.24,0,0,0,.06-.18L109,381.09A.29.29,0,0,0,108.71,380.85Z" style="fill:#263238"></path><polygon points="47.98 374.28 85.03 376.52 122.44 367.55 123.35 373.07 85.21 381.35 48.89 379.28 47.98 374.28" style="fill:#6446FF"></polygon><path d="M85.21,381.85h0l-36.33-2.07a.49.49,0,0,1-.46-.41l-.91-5a.51.51,0,0,1,.12-.43.47.47,0,0,1,.4-.16L85,376l37.34-9a.5.5,0,0,1,.61.41l.91,5.52a.51.51,0,0,1-.39.57l-38.14,8.28Zm-35.9-3.05,35.86,2.05,37.61-8.17-.74-4.52L85.15,377H85l-36.41-2.21Z" style="fill:#263238"></path><path d="M76.6,298.34s-2.18,5.53-1.45,16.74,7.08,30.54,7.08,31.58-4.36,5.35-4.17,7.24a13.34,13.34,0,0,0,1.81,4.49s-2,.69-1.81,1.55.72,1.21,2.17,1.21,3.82,1.21,5.27-.34A7.54,7.54,0,0,0,88,356c.37-2.41-.36-6.21-.36-12.42S85,309,85.86,306.11a40.57,40.57,0,0,1,2-5.18Z" style="fill:#fff"></path><path d="M83.5,362.1a10.19,10.19,0,0,1-2-.26,7.21,7.21,0,0,0-1.32-.19c-1.21,0-2.37-.19-2.66-1.61-.2-.91.85-1.56,1.57-1.89a12.41,12.41,0,0,1-1.58-4.2c-.13-1.31,1.37-3.3,2.69-5.06a11.09,11.09,0,0,0,1.48-2.24c0-.25-.49-1.91-1-3.83-1.79-6.27-5.51-19.32-6-27.71-.73-11.19,1.4-16.72,1.49-16.95a.48.48,0,0,1,.57-.3L88,300.44a.51.51,0,0,1,.34.28.47.47,0,0,1,0,.43,41.69,41.69,0,0,0-2,5.11c-.53,1.71.31,13.45,1,22.89.44,6.16.85,12,.85,14.4,0,2.91.16,5.32.29,7.25a26,26,0,0,1,.07,5.25,8.06,8.06,0,0,1-2.67,5.1A3.1,3.1,0,0,1,83.5,362.1Zm-6.57-63.17c-.46,1.46-1.88,6.84-1.28,16.12.53,8.28,4.23,21.26,6,27.5a31.8,31.8,0,0,1,1.07,4.11c0,.56-.58,1.36-1.68,2.83s-2.59,3.44-2.5,4.37a13,13,0,0,0,1.74,4.26.47.47,0,0,1,0,.43.48.48,0,0,1-.31.31c-.81.29-1.53.79-1.49,1,.1.47.28.81,1.69.81a7.9,7.9,0,0,1,1.52.21c1.25.25,2.54.51,3.39-.4a7,7,0,0,0,2.41-4.56,27,27,0,0,0-.07-5c-.14-1.95-.3-4.37-.3-7.32,0-2.38-.41-8.18-.85-14.33-.9-12.51-1.49-21.51-.94-23.26a42.93,42.93,0,0,1,1.76-4.68Z" style="fill:#263238"></path><path d="M85.68,261.94a19.36,19.36,0,0,0-6.9,4.83c-2.54,3.1-1.63,6.9-1.45,9.32a40.92,40.92,0,0,1-.18,5.86l-4,15.7s1.27,2.07,9.81,3.8,11.26,1.72,11.26,1.72-.73-17.94,0-25.19,1.63-10.69-.91-13.28" style="fill:#6446FF"></path><path d="M94.22,303.67c-.11,0-2.87,0-11.36-1.73s-10-3.79-10.13-4a.45.45,0,0,1-.06-.39l4-15.7h0a39.63,39.63,0,0,0,.17-5.71c0-.34-.07-.72-.11-1.12-.27-2.42-.63-5.73,1.67-8.55a19.79,19.79,0,0,1,7.11-5,.5.5,0,0,1,.65.28.51.51,0,0,1-.28.65,19.14,19.14,0,0,0-6.7,4.68c-2,2.5-1.72,5.44-1.46,7.81.05.41.09.8.12,1.16a39.75,39.75,0,0,1-.19,5.95L73.7,297.52c.48.47,2.55,2.06,9.36,3.44a89,89,0,0,0,10.64,1.69c-.11-3.07-.63-18.23,0-24.72.11-1.12.23-2.15.34-3.1.58-5.17.88-7.76-1.11-9.78a.5.5,0,0,1,.72-.7c2.31,2.36,2,5.28,1.38,10.6-.11.94-.22,2-.33,3.08-.72,7.13,0,25,0,25.12a.55.55,0,0,1-.14.37A.49.49,0,0,1,94.22,303.67Z" style="fill:#263238"></path></g><g id="freepik--speech-bubbles--inject-14"><path d="M44.15,122.71H91.34a5.21,5.21,0,0,1,5.21,5.21v29.73a5.22,5.22,0,0,1-5.21,5.22H76L79.09,177,65.78,162.87H44.15a5.22,5.22,0,0,1-5.22-5.22V127.92A5.22,5.22,0,0,1,44.15,122.71Z" style="fill:#fff"></path><path d="M79.09,177.49a.49.49,0,0,1-.37-.16l-13.16-14H44.15a5.73,5.73,0,0,1-5.72-5.72V127.92a5.72,5.72,0,0,1,5.72-5.71H91.34a5.71,5.71,0,0,1,5.71,5.71v29.73a5.72,5.72,0,0,1-5.71,5.72H76.65l2.92,13.51a.49.49,0,0,1-.25.55A.46.46,0,0,1,79.09,177.49ZM44.15,123.21a4.72,4.72,0,0,0-4.72,4.71v29.73a4.73,4.73,0,0,0,4.72,4.72H65.78a.45.45,0,0,1,.36.16l12.08,12.81L75.54,163a.47.47,0,0,1,.1-.42.5.5,0,0,1,.39-.18H91.34a4.72,4.72,0,0,0,4.71-4.72V127.92a4.71,4.71,0,0,0-4.71-4.71Z" style="fill:#263238"></path><path d="M57.9,142.38a2.53,2.53,0,1,1-2.53-2.53A2.53,2.53,0,0,1,57.9,142.38Z" style="fill:#263238"></path><path d="M70.27,142.38a2.53,2.53,0,1,1-2.53-2.53A2.53,2.53,0,0,1,70.27,142.38Z" style="fill:#263238"></path><path d="M82.64,142.38a2.53,2.53,0,1,1-2.53-2.53A2.53,2.53,0,0,1,82.64,142.38Z" style="fill:#263238"></path><path d="M135.94,139.25H93.66A4.67,4.67,0,0,0,89,143.92v26.63a4.68,4.68,0,0,0,4.67,4.68h.91l-2.74,12.65,11.92-12.65h32.19a4.68,4.68,0,0,0,4.67-4.68V143.92A4.67,4.67,0,0,0,135.94,139.25Z" style="fill:#6446FF"></path><path d="M91.83,188.38a.46.46,0,0,1-.23-.06.5.5,0,0,1-.26-.55l2.61-12h-.29a5.18,5.18,0,0,1-5.17-5.18V143.92a5.18,5.18,0,0,1,5.17-5.17h42.28a5.18,5.18,0,0,1,5.17,5.17v26.63a5.18,5.18,0,0,1-5.17,5.18H104L92.19,188.22A.5.5,0,0,1,91.83,188.38Zm1.83-48.63a4.17,4.17,0,0,0-4.17,4.17v26.63a4.18,4.18,0,0,0,4.17,4.18h.91a.5.5,0,0,1,.39.18.53.53,0,0,1,.1.42l-2.36,10.9,10.69-11.35a.48.48,0,0,1,.36-.15h32.19a4.18,4.18,0,0,0,4.17-4.18V143.92a4.17,4.17,0,0,0-4.17-4.17Z" style="fill:#263238"></path><path d="M106.16,156.15a2.53,2.53,0,1,1-2.53-2.53A2.53,2.53,0,0,1,106.16,156.15Z" style="fill:#263238"></path><path d="M118.52,156.15a2.53,2.53,0,1,1-2.53-2.53A2.53,2.53,0,0,1,118.52,156.15Z" style="fill:#263238"></path><path d="M130.89,156.15a2.53,2.53,0,1,1-2.53-2.53A2.53,2.53,0,0,1,130.89,156.15Z" style="fill:#263238"></path></g><g id="freepik--Chart--inject-14"><rect x="41.05" y="73.78" width="10.3" height="30.73" style="fill:#263238"></rect><path d="M51.35,104.76H41.05a.25.25,0,0,1-.25-.25V73.78a.25.25,0,0,1,.25-.25h10.3a.25.25,0,0,1,.25.25v30.73A.25.25,0,0,1,51.35,104.76Zm-10.05-.5h9.8V74H41.3Z" style="fill:#263238"></path><rect x="57.23" y="84.83" width="10.3" height="19.68" style="fill:#6446FF"></rect><path d="M67.54,105H57.23a.5.5,0,0,1-.5-.5V84.83a.51.51,0,0,1,.5-.5H67.54a.51.51,0,0,1,.5.5v19.68A.5.5,0,0,1,67.54,105Zm-9.81-1H67V85.33H57.73Z" style="fill:#263238"></path><rect x="73.42" y="67.05" width="10.3" height="37.46" style="fill:#263238"></rect><path d="M83.73,104.76H73.42a.25.25,0,0,1-.25-.25V67.05a.25.25,0,0,1,.25-.25H83.73a.25.25,0,0,1,.25.25v37.46A.25.25,0,0,1,83.73,104.76Zm-10.06-.5h9.81v-37H73.67Z" style="fill:#263238"></path><rect x="89.61" y="74.8" width="10.3" height="29.71" style="fill:#6446FF"></rect><path d="M99.91,105H89.61a.5.5,0,0,1-.5-.5V74.8a.5.5,0,0,1,.5-.5h10.3a.5.5,0,0,1,.5.5v29.71A.5.5,0,0,1,99.91,105Zm-9.8-1h9.3V75.3h-9.3Z" style="fill:#263238"></path><rect x="105.8" y="68.01" width="10.3" height="36.5" style="fill:#263238"></rect><path d="M116.1,104.76H105.8a.25.25,0,0,1-.25-.25V68a.25.25,0,0,1,.25-.25h10.3a.25.25,0,0,1,.25.25v36.5A.25.25,0,0,1,116.1,104.76Zm-10-.5h9.8v-36h-9.8Z" style="fill:#263238"></path><rect x="121.99" y="46.38" width="10.3" height="58.13" style="fill:#6446FF"></rect><path d="M132.29,105H122a.5.5,0,0,1-.5-.5V46.38a.5.5,0,0,1,.5-.5h10.3a.5.5,0,0,1,.5.5v58.13A.5.5,0,0,1,132.29,105Zm-9.8-1h9.3V46.88h-9.3Z" style="fill:#263238"></path><path d="M149.89,46h-6a.25.25,0,0,1,0-.5h6a.25.25,0,0,1,0,.5Z" style="fill:#263238"></path><path d="M149.89,57.76h-6a.25.25,0,0,1-.25-.25.25.25,0,0,1,.25-.25h6a.25.25,0,0,1,.25.25A.25.25,0,0,1,149.89,57.76Z" style="fill:#263238"></path><path d="M149.89,69.52h-6a.25.25,0,0,1-.25-.25.25.25,0,0,1,.25-.25h6a.25.25,0,0,1,.25.25A.25.25,0,0,1,149.89,69.52Z" style="fill:#263238"></path><path d="M149.89,81.27h-6a.25.25,0,0,1,0-.5h6a.25.25,0,0,1,0,.5Z" style="fill:#263238"></path><path d="M149.89,93h-6a.25.25,0,0,1,0-.5h6a.25.25,0,0,1,0,.5Z" style="fill:#263238"></path><path d="M149.89,104.77h-6a.25.25,0,0,1,0-.5h6a.25.25,0,0,1,0,.5Z" style="fill:#263238"></path><path d="M62.72,72.5a.52.52,0,0,1-.26-.08L46.68,62.87A.5.5,0,1,1,47.2,62l15.43,9.34L78.77,54.07a.52.52,0,0,1,.41-.16l16.1,1.36,15.47-6.14,17.69-23.28a.5.5,0,1,1,.8.6L111.46,49.84a.5.5,0,0,1-.21.17L95.54,56.24a.66.66,0,0,1-.23,0l-16-1.35L63.09,72.34A.52.52,0,0,1,62.72,72.5Z" style="fill:#263238"></path><path d="M48.93,62.45a2,2,0,1,0-2,2A2,2,0,0,0,48.93,62.45Z" style="fill:#263238"></path><path d="M64.71,72a2,2,0,1,0-2,2A2,2,0,0,0,64.71,72Z" style="fill:#263238"></path><path d="M81.12,54.41a2,2,0,1,0-2,2A2,2,0,0,0,81.12,54.41Z" style="fill:#263238"></path><path d="M97.34,55.78a2,2,0,1,0-2,2A2,2,0,0,0,97.34,55.78Z" style="fill:#263238"></path><path d="M113.05,49.23a2,2,0,1,0-2,2A2,2,0,0,0,113.05,49.23Z" style="fill:#263238"></path><path d="M130.83,26.15a2,2,0,1,0-2,2A2,2,0,0,0,130.83,26.15Z" style="fill:#263238"></path></g></svg>